<svg xmlns="http://www.w3.org/2000/svg"><defs><linearGradient id="a" x1="22.461" y1=".132" x2="22.461" y2="61.288" gradientUnits="userSpaceOnUse"><stop stop-color="#FAB412"/><stop offset="1" stop-color="#F68A09"/></linearGradient></defs><symbol id="fb" viewBox="0 0 9 18"><path d="M.202 6.157h1.715V4.491c0-.734.019-1.867.552-2.569C3.031 1.18 3.802.675 5.129.675c2.162 0 3.073.308 3.073.308l-.428 2.54s-.714-.207-1.381-.207-1.264.238-1.264.905v1.936h2.734l-.19 2.48H5.128v8.615H1.917V8.637H.202v-2.48z" fill="#858585"/></symbol><symbol id="location" viewBox="0 0 11 14"><path fill-rule="evenodd" clip-rule="evenodd" d="M5.333.51c2.641 0 4.744 2.134 4.782 4.766.056 3.796-4.61 8.479-4.782 8.479-.184 0-4.782-5.071-4.782-8.479C.55 2.644 2.69.51 5.333.51zm0 1.668a2.554 2.554 0 0 1 2.558 2.549 2.554 2.554 0 0 1-2.558 2.549 2.554 2.554 0 0 1-2.558-2.55 2.554 2.554 0 0 1 2.558-2.548z" fill="#3D2E29"/></symbol><symbol id="mail" viewBox="0 0 13 10"><path d="M.977 9.074V3.882l5.991 3.195 5.592-3.595v5.592H.977z" fill="#3D2E29"/><path d="M.977 2.284V.287H12.56v1.997L6.968 5.88.978 2.284z" fill="#3D2E29"/></symbol><symbol id="map-icon" viewBox="0 0 45 62"><path fill-rule="evenodd" clip-rule="evenodd" d="M22.46.132c12.196 0 21.905 9.854 22.083 22.006.257 17.527-21.291 39.15-22.083 39.15-.851 0-22.083-23.414-22.083-39.15C.377 9.985 10.264.132 22.46.132zm.001 7.7c6.524 0 11.812 5.27 11.812 11.77 0 6.501-5.289 11.771-11.812 11.771S10.65 26.103 10.65 19.602c0-6.5 5.288-11.77 11.811-11.77z" fill="url(#a)"/></symbol><symbol id="odno" viewBox="0 0 12 20"><path fill-rule="evenodd" clip-rule="evenodd" d="M11.451 10.668c-.261-.546-.985-1-1.947-.212-1.3 1.064-3.388 1.064-3.388 1.064s-2.088 0-3.388-1.064c-.962-.788-1.686-.334-1.947.212-.456.95.059 1.41 1.22 2.185.993.661 2.356.909 3.236 1.001l-.735.763a43894.88 43894.88 0 0 0-2.727 2.834 1.133 1.133 0 0 0 0 1.56l.125.13c.207.214.477.322.748.322h.004c.271 0 .542-.108.749-.323l2.727-2.833 2.728 2.833c.414.431 1.086.431 1.5 0l.126-.13a1.133 1.133 0 0 0 0-1.559l-2.728-2.834-.737-.765c.881-.095 2.23-.343 3.213-1 1.162-.774 1.677-1.234 1.221-2.184zM6.116 2.906c1.258 0 2.277 1.06 2.277 2.366 0 1.307-1.02 2.366-2.277 2.366-1.258 0-2.277-1.06-2.277-2.366s1.02-2.366 2.277-2.366zm0 7.175c2.556 0 4.628-2.153 4.628-4.809S8.672.463 6.116.463 1.488 2.616 1.488 5.272s2.072 4.809 4.628 4.809z" fill="#858585"/></symbol><symbol id="phone" viewBox="0 0 15 14"><path fill-rule="evenodd" clip-rule="evenodd" d="M12.653 11.657c-.202.308-.633.717-1.049.911-.415.195-.816.175-1.181.11-.366-.063-.696-.171-1.56-.727C8 11.396 6.603 10.393 5.408 9.1 4.212 7.806 3.218 6.221 2.636 5.227c-.583-.995-.755-1.398-.805-1.805-.05-.408.023-.82.298-1.237.275-.418.752-.842 1.194-.942.442-.1.849.125 1.216.432.368.307.697.697.905 1.089.207.392.293.785.188 1.077-.105.291-.402.481-.6.6-.2.12-.301.17-.372.225-.071.055-.112.117-.08.252.03.134.134.34.41.867.277.528.726 1.376 1.356 2.116.63.74 1.44 1.371 1.923 1.657.484.285.642.225.81.027.167-.198.344-.532.553-.7.208-.168.448-.17.678-.124.23.046.449.141.709.298.26.157.559.376.84.637.28.262.543.565.697.778.154.213.2.336.237.501.036.166.062.373-.14.682z" fill="#3D2E29"/></symbol><symbol id="twitter" viewBox="0 0 18 15"><path d="M17.41 2.62a6.902 6.902 0 0 1-2.004.557 3.537 3.537 0 0 0 1.533-1.955c-.674.405-1.42.699-2.214.857A3.462 3.462 0 0 0 12.179.963c-1.926 0-3.488 1.583-3.488 3.535 0 .277.031.546.09.805C5.883 5.156 3.313 3.75 1.593 1.61c-.3.522-.473 1.13-.473 1.777 0 1.226.616 2.308 1.552 2.942a3.44 3.44 0 0 1-1.58-.442v.044c0 1.713 1.202 3.141 2.798 3.466a3.45 3.45 0 0 1-1.575.06c.444 1.404 1.732 2.426 3.258 2.455a6.94 6.94 0 0 1-5.164 1.463 9.778 9.778 0 0 0 5.347 1.588c6.415 0 9.923-5.385 9.923-10.056 0-.153-.003-.305-.01-.457a7.142 7.142 0 0 0 1.74-1.83z" fill="#858585"/></symbol><symbol id="vk" viewBox="0 0 11 14"><path fill-rule="evenodd" clip-rule="evenodd" d="M1.02.463H6.7c1.869 0 3.46.952 3.458 2.876-.001 1.607-.561 2.232-1.711 2.939.098.084.757.288.979.402a2.7 2.7 0 0 1 .796.611c.652.69.774 1.32.774 2.401 0 2.51-2.336 3.771-4.585 3.771H.996l.024-13zM4.106 3.88v1.688c1.463 0 2.838.2 2.838-1.448 0-1.527-1.556-1.275-2.84-1.275l.002 1.035zm0 7.191c1.602 0 3.583.275 3.618-1.617.036-1.973-2.035-1.617-3.618-1.617v3.234z" fill="#858585"/></symbol></svg>