<svg width="165" height="53" viewBox="0 0 165 53" fill="none" xmlns="http://www.w3.org/2000/svg">
<rect width="165" height="52.5658" fill="black" fill-opacity="0"/>
<rect width="165" height="52.5658" fill="black" fill-opacity="0"/>
<rect width="63.7102" height="52.5658" fill="black" fill-opacity="0"/>
<path d="M18.8135 24.7718C16.8199 24.3649 10.4738 21.1953 6.78918 17.5948C5.21126 16.053 3.62589 14.4972 2.74467 12.4437C1.92137 10.5251 1.57577 8.50712 1.68555 6.43039C1.86869 2.96825 3.48301 0.490058 3.98885 -9.34714e-07C4.00761 0.0492238 9.39726 14.2377 26.7445 24.2238C28.4054 25.1798 33.6398 23.0396 36.3979 21.7625C39.156 20.4881 43.569 19.3013 46.1424 21.0351C50.0975 24.1335 48.1668 27.4152 47.7972 28.8728C47.4304 30.3331 47.4304 33.0678 47.4304 33.0678C47.4304 33.0678 46.01 30.1854 43.9359 29.8764C40.4799 29.3623 36.8806 30.4589 34.1914 32.5126C29.7205 36.3604 29.6212 40.9383 30.8927 44.7532C32.2111 48.7048 35.0023 51.8361 35.9373 52.4842C32.5365 52.9382 31.7091 51.4806 28.3083 48.5326C28.1235 51.3274 25.917 52.4842 25.917 52.4842C23.5285 48.7377 22.4859 45.229 22.0998 42.2865C21.5923 38.4251 22.2156 35.5318 22.4225 34.3422C21.2964 36.4102 19.4628 38.5845 17.0086 39.0743C15.3711 39.4011 10.6315 38.7642 8.37896 34.0698C12.5208 33.883 16.7408 33.5275 19.1657 31.3479C16.3315 32.5772 10.0222 33.9787 5.47134 31.1073C3.58617 29.9177 2.71322 27.6205 2.7477 25.6037C7.98813 27.9624 13.0907 29.0048 18.047 28.3677C13.263 28.0307 2.89498 27.1545 0.315862 20.2139C-0.374772 18.3556 0.198914 14.3564 0.782533 13.6733C7.29833 20.4873 16.8828 24.783 18.8135 24.7718Z" fill="url(#paint0_linear)"/>
<path d="M63.216 5.1615C63.7731 6.25538 64.1468 9.60539 62.6988 11.1778C61.6631 12.3026 58.4047 14.4953 53.8698 16.1383C58.6651 14.693 60.4923 13.6391 63.2849 11.5197C63.4228 12.1692 63.3233 13.7285 61.699 15.0406C59.7347 16.6276 54.433 18.0108 54.096 18.1051C57.2171 17.7753 62.012 15.7475 62.2506 15.5534C62.2506 16.3396 61.7285 17.3785 60.8716 18.0146C58.6264 19.6809 54.9446 19.8264 53.4936 20.0315C55.798 20.061 58.4927 19.6896 59.3891 19.3251C59.2765 19.6713 58.2596 20.5959 57.4829 21.0586C55.7346 22.0997 54.2761 22.6666 52.4756 23.3577C52.3321 23.4127 49.6523 24.3012 49.6366 24.2249C49.6352 24.2188 48.7377 19.8947 44.9707 19.4391C51.0802 16.408 60.5268 9.57121 63.216 5.1615Z" fill="url(#paint1_linear)"/>
<rect width="128" height="9" fill="black" fill-opacity="0" transform="translate(37.0001 42)"/>
<path d="M38.8048 48.9467C38.2327 48.9467 37.7887 48.7928 37.4731 48.4855C37.1575 48.1782 37.0001 47.7388 37.0001 47.1675C37.0001 46.5674 37.1077 46.0212 37.3218 45.53C37.5367 45.0381 37.8384 44.6542 38.2266 44.3768C38.6148 44.0999 39.056 43.9618 39.5493 43.9618C40.0284 43.9618 40.4619 44.0505 40.85 44.227L40.5434 45.0275C40.187 44.8736 39.8645 44.7971 39.5754 44.7971C39.1375 44.7971 38.7722 45.0198 38.4802 45.4644C38.1883 45.9098 38.0423 46.4601 38.0423 47.1152C38.0423 47.4372 38.1238 47.685 38.2877 47.8591C38.4517 48.0332 38.6776 48.1202 38.9666 48.1202C39.1828 48.1202 39.385 48.0883 39.573 48.0247C39.7618 47.9611 39.9505 47.8826 40.1406 47.7898V48.6381C39.7316 48.8438 39.2867 48.9467 38.8048 48.9467Z" fill="#1E1C1C"/>
<path d="M44.3016 43.9622C44.9438 43.9622 45.3149 44.3031 45.4144 44.9842H45.4494C45.6684 44.6477 45.9171 44.3934 46.196 44.2205C46.4753 44.048 46.7652 43.9618 47.0657 43.9618C47.4539 43.9618 47.7499 44.0723 47.953 44.2946C48.1556 44.5161 48.2572 44.8287 48.2572 45.2316C48.2572 45.4171 48.225 45.6794 48.1609 46.0187L47.5477 48.8592H46.5185L47.1448 45.9361C47.2003 45.6604 47.228 45.4681 47.228 45.3575C47.228 44.9834 47.0511 44.7963 46.6979 44.7963C46.3828 44.7963 46.0884 44.9761 45.8156 45.3357C45.5424 45.6952 45.343 46.1722 45.2174 46.7666L44.775 48.8588H43.7459L44.3721 45.9357C44.4219 45.6981 44.4468 45.5138 44.4468 45.3834C44.4468 44.9919 44.2759 44.7963 43.9342 44.7963C43.6129 44.7963 43.3157 44.9806 43.0425 45.3486C42.7697 45.7167 42.5675 46.207 42.4362 46.8189L42.0068 48.8588H40.9732L42.0068 44.0481H42.8129L42.7208 44.9397H42.7603C43.1921 44.2881 43.7059 43.9622 44.3016 43.9622Z" fill="#1E1C1C"/>
<path d="M49.1726 44.0493H50.1887L50.4647 46.3589C50.4908 46.5387 50.5145 46.7918 50.5348 47.1178C50.5552 47.4445 50.5654 47.7073 50.5654 47.9073H50.5915C50.8427 47.2837 51.04 46.8302 51.1827 46.546L52.4659 44.0493H53.5787L50.565 49.6169C50.302 50.0955 50.0158 50.4457 49.7067 50.6672C49.3972 50.8895 49.0339 51 48.616 51C48.3942 51 48.185 50.9725 47.9897 50.9174V50.0995C48.2086 50.1457 48.3909 50.1692 48.5373 50.1692C48.7534 50.1692 48.9491 50.1064 49.124 49.9797C49.2994 49.8537 49.4804 49.6282 49.6672 49.3035L49.8906 48.9034L49.1726 44.0493Z" fill="#1E1C1C"/>
<path d="M58.0378 44.7797C58.0378 45.5628 57.9187 46.2824 57.681 46.9395C57.4429 47.5959 57.1163 48.0952 56.702 48.4357C56.2873 48.7762 55.8086 48.9467 55.2655 48.9467C54.7196 48.9467 54.2959 48.7863 53.9954 48.4657C53.6949 48.1454 53.5444 47.7008 53.5444 47.1327C53.5444 46.6136 53.6366 46.135 53.8205 45.6973C54.0044 45.2596 54.2637 44.915 54.5981 44.6639C54.932 44.4133 55.3079 44.2878 55.7259 44.2878C56.2837 44.2878 56.7 44.5473 56.9744 45.0664H57.0005L57.0091 44.9186V44.7967C57.0091 44.1242 56.9137 43.6294 56.722 43.3135C56.5308 42.9977 56.2311 42.8394 55.8221 42.8394C55.5094 42.8394 55.206 42.9046 54.9112 43.035L54.6747 42.2478C54.8586 42.1697 55.0682 42.1085 55.303 42.0652C55.5383 42.0219 55.7593 42 55.9669 42C57.3471 42.0004 58.0378 42.9268 58.0378 44.7797ZM55.3483 48.1117C55.7047 48.1117 56.015 47.9178 56.2792 47.5291C56.543 47.1404 56.7351 46.6071 56.8549 45.9285C56.7787 45.6673 56.658 45.4616 56.4912 45.311C56.3245 45.1603 56.1291 45.0846 55.9045 45.0846C55.6619 45.0846 55.4384 45.1753 55.2341 45.3567C55.0299 45.5377 54.8704 45.7871 54.7567 46.105C54.6429 46.422 54.5858 46.7711 54.5858 47.1509C54.5858 47.4582 54.6531 47.6955 54.7872 47.8623C54.9218 48.0283 55.109 48.1117 55.3483 48.1117Z" fill="#1E1C1C"/>
<path d="M60.5695 44.0493L60.0044 46.7027C59.9139 47.1117 59.8686 47.3915 59.8686 47.5421C59.8686 47.9276 60.0541 48.1207 60.4247 48.1207C60.6351 48.1207 60.8435 48.0381 61.051 47.8729C61.2586 47.7077 61.4425 47.4721 61.6031 47.1663C61.7638 46.8602 61.8878 46.5011 61.9754 46.0897L62.4089 44.0497H63.4294L62.4089 48.8605H61.5987L61.6908 47.9689H61.6558C61.4164 48.3054 61.1668 48.5524 60.9067 48.7103C60.6466 48.8686 60.3664 48.9475 60.0655 48.9475C59.6741 48.9475 59.372 48.8374 59.1587 48.6171C58.9454 48.3969 58.839 48.0806 58.839 47.6688C58.839 47.4862 58.8566 47.306 58.8916 47.127C58.9267 46.9493 58.9618 46.7699 58.9968 46.5901L59.5355 44.0501H60.5695V44.0493Z" fill="#1E1C1C"/>
<path d="M66.3073 47.0157C66.1234 47.0157 65.9665 47.0635 65.8368 47.159C65.7067 47.2546 65.5893 47.4068 65.4841 47.6158C65.2651 48.0393 65.0935 48.3276 64.9695 48.4815C64.8451 48.6353 64.7065 48.7483 64.5532 48.8208C64.4003 48.8933 64.2168 48.9297 64.0036 48.9297C63.796 48.9297 63.6285 48.9038 63.5 48.8515V48.0207C63.6052 48.0583 63.6986 48.0774 63.7805 48.0774C63.909 48.0774 64.0186 48.0381 64.1092 47.9599C64.1997 47.8818 64.2992 47.7364 64.4068 47.5251C64.5528 47.2525 64.6886 47.057 64.8142 46.9379C64.9398 46.8189 65.0784 46.7351 65.2305 46.6857C64.7224 46.5144 64.4684 46.1621 64.4684 45.6289C64.4684 45.1417 64.6462 44.7571 65.0005 44.4736C65.3557 44.1914 65.8421 44.0497 66.4615 44.0497H68.3889L67.3683 48.8604H66.3432L66.7506 47.0161H66.3073V47.0157ZM66.3905 44.832C66.1161 44.832 65.8992 44.9016 65.7402 45.0409C65.5807 45.1802 65.5012 45.3729 65.5012 45.6195C65.5012 45.837 65.5722 45.9965 65.7137 46.0981C65.8551 46.1998 66.0468 46.2504 66.2894 46.2504H66.9071L67.2048 44.8324H66.3905V44.832Z" fill="#1E1C1C"/>
<path d="M73.215 44.0493L72.8032 45.9807H74.7392L75.1555 44.0493H76.176L75.1555 48.8601H74.1218L74.5597 46.7853H72.6323L72.1854 48.8601H71.1518L72.1944 44.0493H73.215Z" fill="#1E1C1C"/>
<path d="M78.1381 48.9467C77.7263 48.9467 77.4005 48.7997 77.1611 48.5053C76.9218 48.2106 76.8019 47.7967 76.8019 47.2635C76.8019 46.678 76.9034 46.1297 77.1061 45.6191C77.3092 45.1085 77.5889 44.7048 77.9453 44.408C78.3016 44.1108 78.6926 43.9618 79.1192 43.9618C79.4021 43.9618 79.6464 44.0278 79.8507 44.1594C80.0549 44.2914 80.2144 44.4837 80.3281 44.736H80.3718L80.6433 44.0488H81.4319L80.3983 48.8596H79.6011L79.6933 48.0939H79.6672C79.2052 48.6624 78.6959 48.9467 78.1381 48.9467ZM78.5149 48.1202C78.7542 48.1202 78.9895 48.0081 79.2199 47.7834C79.4502 47.5582 79.6403 47.2574 79.7891 46.8808C79.9379 46.5042 80.0125 46.092 80.0125 45.6454C80.0125 45.3903 79.944 45.185 79.8066 45.0295C79.6692 44.8745 79.4898 44.7971 79.268 44.7971C79.0201 44.7971 78.786 44.9085 78.5671 45.132C78.3481 45.3555 78.1728 45.6592 78.0415 46.0435C77.9102 46.4273 77.8445 46.8257 77.8445 47.2371C77.8445 47.5327 77.9037 47.7538 78.0223 47.9004C78.1401 48.0474 78.3045 48.1202 78.5149 48.1202Z" fill="#1E1C1C"/>
<path d="M85.12 43.9622C85.7622 43.9622 86.1332 44.3031 86.2327 44.9842H86.2678C86.4867 44.6477 86.7355 44.3934 87.0144 44.2205C87.2937 44.048 87.5836 43.9618 87.8841 43.9618C88.2723 43.9618 88.5683 44.0723 88.7713 44.2946C88.974 44.5161 89.0755 44.8287 89.0755 45.2316C89.0755 45.4171 89.0433 45.6794 88.9793 46.0187L88.366 48.8592H87.3369L87.9632 45.9361C88.0186 45.6604 88.0464 45.4681 88.0464 45.3575C88.0464 44.9834 87.8694 44.7963 87.5163 44.7963C87.2011 44.7963 86.9067 44.9761 86.6339 45.3357C86.3607 45.6952 86.1614 46.1722 86.0358 46.7666L85.5934 48.8588H84.5642L85.1905 45.9357C85.2403 45.6981 85.2651 45.5138 85.2651 45.3834C85.2651 44.9919 85.0943 44.7963 84.7526 44.7963C84.4313 44.7963 84.1341 44.9806 83.8609 45.3486C83.5881 45.7167 83.3858 46.207 83.2545 46.8189L82.8252 48.8588H81.7915L82.8252 44.0481H83.6313L83.5391 44.9397H83.5787C84.0101 44.2881 84.5242 43.9622 85.12 43.9622Z" fill="#1E1C1C"/>
<path d="M92.216 47.0157C92.0317 47.0157 91.8751 47.0635 91.7451 47.159C91.615 47.2546 91.4975 47.4068 91.3923 47.6158C91.1734 48.0393 91.0017 48.3276 90.8778 48.4815C90.7534 48.6353 90.6148 48.7483 90.4615 48.8208C90.3086 48.8933 90.1251 48.9297 89.9118 48.9297C89.7043 48.9297 89.5367 48.9038 89.4083 48.8515V48.0207C89.5134 48.0583 89.6068 48.0774 89.6888 48.0774C89.8172 48.0774 89.9269 48.0381 90.0174 47.9599C90.108 47.8818 90.2074 47.7364 90.3151 47.5251C90.4611 47.2525 90.5968 47.057 90.7224 46.9379C90.848 46.8189 90.9866 46.7351 91.1387 46.6857C90.6307 46.5144 90.3767 46.1621 90.3767 45.6289C90.3767 45.1417 90.5544 44.7571 90.9088 44.4736C91.2639 44.1914 91.7504 44.0497 92.3697 44.0497H94.2971L93.2765 48.8604H92.2515L92.6588 47.0161H92.216V47.0157ZM92.2992 44.832C92.0248 44.832 91.8074 44.9016 91.6488 45.0409C91.4894 45.1802 91.4099 45.3729 91.4099 45.6195C91.4099 45.837 91.4808 45.9965 91.6223 46.0981C91.7638 46.1998 91.9555 46.2504 92.1985 46.2504H92.8162L93.1139 44.8324H92.2992V44.832Z" fill="#1E1C1C"/>
<path d="M97.9974 46.8198H97.3055C97.1477 47.4781 96.8614 47.9968 96.4472 48.377C96.0329 48.7573 95.5379 48.9468 94.9621 48.9468C94.7636 48.9468 94.5752 48.9265 94.397 48.886L94.5589 48.0681C94.6992 48.1029 94.8305 48.1203 94.9532 48.1203C95.2309 48.1203 95.4788 48.0175 95.6977 47.8114C95.9167 47.6053 96.0884 47.3243 96.2123 46.9675C96.3367 46.6108 96.3986 46.2326 96.3986 45.8322C96.3986 45.4928 96.3338 45.2353 96.2033 45.0604C96.0737 44.8847 95.8902 44.7972 95.6537 44.7972C95.4902 44.7972 95.3193 44.8276 95.1412 44.8887V44.0578C95.363 43.9943 95.5938 43.9623 95.8331 43.9623C96.3383 43.9623 96.731 44.123 97.0115 44.4449C97.292 44.7668 97.4319 45.2236 97.4319 45.8152C97.4319 45.8933 97.4246 45.9876 97.4099 46.0978H98.1459L98.5882 44.0489H99.5562L99.1094 46.0978H99.8058C99.9664 45.4337 100.254 44.9118 100.667 44.532C101.08 44.1522 101.571 43.9623 102.14 43.9623C102.383 43.9623 102.583 43.9825 102.74 44.023L102.561 44.8409C102.433 44.8122 102.295 44.7976 102.149 44.7976C101.886 44.7976 101.648 44.8924 101.433 45.0823C101.219 45.2726 101.046 45.5479 100.916 45.9087C100.786 46.2703 100.721 46.6594 100.721 47.0769C100.721 47.4101 100.783 47.6676 100.907 47.8486C101.031 48.03 101.214 48.1207 101.457 48.1207C101.603 48.1207 101.774 48.0875 101.969 48.0207V48.8601C101.765 48.9184 101.537 48.9472 101.286 48.9472C100.784 48.9472 100.393 48.7897 100.112 48.475C99.8315 48.1608 99.6916 47.7049 99.6916 47.1072V46.9639L99.7002 46.8206H98.9556L98.5132 48.8605H97.5538L97.9974 46.8198Z" fill="#1E1C1C"/>
<path d="M104.839 44.0492L104.428 45.9807H106.364L106.78 44.0492H107.801L106.78 48.86H105.746L106.184 46.7852H104.257L103.81 48.8596H102.776L103.819 44.0488H104.839V44.0492Z" fill="#1E1C1C"/>
<path d="M110.24 44.0492L109.802 46.0807C110.167 46.0082 110.474 45.9718 110.722 45.9718C111.166 45.9718 111.513 46.0847 111.765 46.3111C112.016 46.5374 112.141 46.8488 112.141 47.2464C112.141 47.7655 111.964 48.179 111.609 48.4863C111.254 48.7936 110.768 48.9475 110.148 48.9475C109.599 48.9475 109.192 48.8256 108.926 48.5822C108.661 48.3389 108.528 47.9979 108.528 47.5602C108.528 47.3108 108.56 47.0355 108.624 46.7338L109.206 44.05H110.24V44.0492ZM110.376 46.7415C110.165 46.7415 109.92 46.7702 109.64 46.8285C109.622 46.9128 109.607 46.9861 109.594 47.048C109.581 47.1104 109.571 47.1679 109.566 47.2201C109.56 47.2723 109.555 47.3209 109.553 47.3659C109.55 47.4104 109.548 47.4578 109.548 47.5072C109.548 47.9566 109.776 48.1814 110.231 48.1814C110.503 48.1814 110.719 48.1065 110.88 47.9575C111.04 47.808 111.121 47.6072 111.121 47.355C111.121 47.1314 111.058 46.9739 110.932 46.8808C110.807 46.7877 110.621 46.7415 110.376 46.7415ZM113.604 48.8596H112.579L113.604 44.0488H114.633L113.604 48.8596Z" fill="#1E1C1C"/>
<path d="M116.994 47.1764L115.658 48.8596H114.476L116.556 46.3848L115.545 44.0488H116.618L117.249 45.6713L118.506 44.0488H119.706L117.687 46.4366L118.773 48.8592H117.695L116.994 47.1764Z" fill="#1E1C1C"/>
<path d="M124.777 48.8596L125.399 45.9366C125.452 45.6754 125.478 45.4859 125.478 45.3668C125.478 44.987 125.29 44.7971 124.913 44.7971C124.702 44.7971 124.495 44.8797 124.291 45.0449C124.087 45.2101 123.903 45.4486 123.739 45.7604C123.575 46.0726 123.453 46.4257 123.371 46.8197L122.942 48.8596H121.908L122.942 44.0488H123.748L123.656 44.9405H123.695C123.938 44.5983 124.187 44.3497 124.444 44.1942C124.701 44.0391 124.98 43.9618 125.281 43.9618C125.672 43.9618 125.975 44.0719 126.19 44.2922C126.404 44.5125 126.512 44.8255 126.512 45.2316C126.512 45.4316 126.478 45.6944 126.411 46.0187L125.811 48.8592H124.777V48.8596Z" fill="#1E1C1C"/>
<path d="M131.72 45.85C131.72 46.4355 131.613 46.9688 131.4 47.4482C131.187 47.9284 130.894 48.2969 130.522 48.5532C130.15 48.8103 129.721 48.9383 129.237 48.9383C128.676 48.9383 128.231 48.7722 127.901 48.4402C127.571 48.1086 127.406 47.6567 127.406 47.0854C127.406 46.5084 127.51 45.9791 127.719 45.4977C127.928 45.0167 128.22 44.6417 128.597 44.3737C128.974 44.1052 129.409 43.9712 129.902 43.9712C130.472 43.9712 130.917 44.1392 131.238 44.4757C131.56 44.8122 131.72 45.2697 131.72 45.85ZM130.682 45.8063C130.682 45.4957 130.61 45.2531 130.468 45.0778C130.324 44.9021 130.12 44.8146 129.854 44.8146C129.583 44.8146 129.339 44.9183 129.125 45.1256C128.91 45.3333 128.744 45.6143 128.626 45.9694C128.507 46.325 128.448 46.704 128.448 47.1072C128.448 47.4292 128.521 47.6753 128.665 47.8466C128.809 48.0179 129.023 48.1033 129.306 48.1033C129.569 48.1033 129.806 48.0049 130.016 47.8077C130.226 47.6105 130.39 47.3344 130.506 46.9789C130.623 46.6234 130.682 46.2326 130.682 45.8063Z" fill="#1E1C1C"/>
<path d="M135.671 43.9622C136.313 43.9622 136.684 44.3031 136.784 44.9842H136.819C137.038 44.6477 137.286 44.3934 137.565 44.2205C137.845 44.048 138.134 43.9618 138.435 43.9618C138.823 43.9618 139.119 44.0723 139.322 44.2946C139.525 44.5161 139.626 44.8287 139.626 45.2316C139.626 45.4171 139.594 45.6794 139.53 46.0187L138.917 48.8592H137.888L138.514 45.9361C138.57 45.6604 138.597 45.4681 138.597 45.3575C138.597 44.9834 138.42 44.7963 138.067 44.7963C137.752 44.7963 137.458 44.9761 137.185 45.3357C136.912 45.6952 136.712 46.1722 136.587 46.7666L136.144 48.8588H135.115L135.741 45.9357C135.791 45.6981 135.816 45.5138 135.816 45.3834C135.816 44.9919 135.645 44.7963 135.303 44.7963C134.982 44.7963 134.685 44.9806 134.412 45.3486C134.139 45.7167 133.937 46.207 133.805 46.8189L133.376 48.8588H132.342L133.376 44.0481H134.182L134.09 44.9397H134.13C134.561 44.2881 135.075 43.9622 135.671 43.9622Z" fill="#1E1C1C"/>
<path d="M144.83 45.85C144.83 46.4355 144.723 46.9688 144.51 47.4482C144.297 47.9284 144.004 48.2969 143.632 48.5532C143.26 48.8103 142.831 48.9383 142.346 48.9383C141.786 48.9383 141.341 48.7722 141.011 48.4402C140.68 48.1086 140.516 47.6567 140.516 47.0854C140.516 46.5084 140.62 45.9791 140.829 45.4977C141.038 45.0167 141.33 44.6417 141.707 44.3737C142.084 44.1052 142.519 43.9712 143.012 43.9712C143.582 43.9712 144.027 44.1392 144.348 44.4757C144.669 44.8122 144.83 45.2697 144.83 45.85ZM143.792 45.8063C143.792 45.4957 143.72 45.2531 143.577 45.0778C143.434 44.9021 143.229 44.8146 142.964 44.8146C142.692 44.8146 142.449 44.9183 142.235 45.1256C142.02 45.3333 141.853 45.6143 141.735 45.9694C141.617 46.325 141.557 46.704 141.557 47.1072C141.557 47.4292 141.63 47.6753 141.774 47.8466C141.919 48.0179 142.133 48.1033 142.416 48.1033C142.679 48.1033 142.915 48.0049 143.125 47.8077C143.335 47.6105 143.499 47.3344 143.616 46.9789C143.733 46.6234 143.792 46.2326 143.792 45.8063Z" fill="#1E1C1C"/>
<path d="M149.166 48.8596H148.132L148.995 44.8579C148.887 44.8344 148.784 44.8231 148.688 44.8231C148.478 44.8231 148.305 44.8692 148.167 44.9623C148.03 45.0555 147.902 45.2101 147.784 45.4276C147.666 45.645 147.499 46.0698 147.283 46.7018C147.029 47.4299 146.824 47.9222 146.669 48.1781C146.514 48.4353 146.337 48.6256 146.135 48.7503C145.933 48.875 145.691 48.9374 145.408 48.9374C145.221 48.9374 145.053 48.9086 144.904 48.8503V47.9935C145.009 48.0368 145.12 48.0587 145.237 48.0587C145.38 48.0587 145.506 48.0117 145.614 47.917C145.722 47.8231 145.826 47.6793 145.927 47.4866C146.028 47.2934 146.177 46.9128 146.376 46.3447C146.589 45.7386 146.768 45.3045 146.913 45.0421C147.057 44.7797 147.217 44.5736 147.392 44.4246C147.568 44.2752 147.774 44.1646 148.01 44.0942C148.247 44.0229 148.533 43.9873 148.868 43.9873C149.324 43.9873 149.755 44.0497 150.161 44.1744L149.166 48.8596Z" fill="#1E1C1C"/>
<path d="M154.291 44.0493H155.508L153.257 46.446L154.685 48.8601H153.502L152.153 46.4897L151.654 48.8601H150.62L151.654 44.0493H152.674L152.192 46.3286L154.291 44.0493Z" fill="#1E1C1C"/>
<path d="M159.867 45.85C159.867 46.4355 159.76 46.9688 159.547 47.4482C159.334 47.9284 159.041 48.2969 158.669 48.5532C158.297 48.8103 157.868 48.9383 157.383 48.9383C156.823 48.9383 156.377 48.7722 156.048 48.4402C155.717 48.1086 155.553 47.6567 155.553 47.0854C155.553 46.5084 155.657 45.9791 155.866 45.4977C156.075 45.0167 156.367 44.6417 156.744 44.3737C157.121 44.1052 157.556 43.9712 158.049 43.9712C158.618 43.9712 159.064 44.1392 159.385 44.4757C159.706 44.8122 159.867 45.2697 159.867 45.85ZM158.828 45.8063C158.828 45.4957 158.757 45.2531 158.614 45.0778C158.471 44.9021 158.266 44.8146 158.001 44.8146C157.729 44.8146 157.486 44.9183 157.272 45.1256C157.057 45.3333 156.89 45.6143 156.772 45.9694C156.654 46.325 156.594 46.704 156.594 47.1072C156.594 47.4292 156.667 47.6753 156.811 47.8466C156.956 48.0179 157.17 48.1033 157.453 48.1033C157.716 48.1033 157.952 48.0049 158.162 47.8077C158.372 47.6105 158.536 47.3344 158.653 46.9789C158.77 46.6234 158.828 46.2326 158.828 45.8063Z" fill="#1E1C1C"/>
<path d="M163.314 43.9623C163.848 43.9623 164.262 44.0712 164.558 44.2886C164.853 44.5061 165 44.815 165 45.2151C165 45.8528 164.62 46.2573 163.861 46.4286V46.446C164.425 46.5967 164.707 46.9287 164.707 47.4421C164.707 47.732 164.627 47.9903 164.468 48.2163C164.309 48.4426 164.077 48.6208 163.774 48.7512C163.47 48.8816 163.105 48.9468 162.678 48.9468C162.036 48.9468 161.545 48.7779 161.205 48.4398C160.864 48.1021 160.694 47.6158 160.694 46.9805C160.694 46.4035 160.802 45.8836 161.018 45.4208C161.235 44.9584 161.541 44.5996 161.938 44.3445C162.335 44.0894 162.794 43.9623 163.314 43.9623ZM161.737 46.7938L161.728 46.9113V47.0331C161.728 47.4044 161.811 47.6883 161.976 47.8855C162.141 48.0827 162.387 48.1811 162.714 48.1811C163.02 48.1811 163.26 48.1122 163.432 47.9746C163.605 47.8365 163.691 47.6531 163.691 47.4243C163.691 47.2129 163.608 47.0546 163.443 46.9501C163.279 46.8457 163.012 46.7934 162.644 46.7934H161.737V46.7938ZM163.296 44.745C162.948 44.745 162.651 44.8596 162.403 45.0887C162.155 45.3179 161.973 45.637 161.86 46.0456H162.793C163.181 46.0456 163.478 45.9787 163.682 45.8455C163.886 45.7123 163.988 45.5297 163.988 45.2973C163.988 45.1349 163.931 45.0021 163.816 44.8993C163.7 44.7964 163.526 44.745 163.296 44.745Z" fill="#1E1C1C"/>
<rect width="102" height="18" fill="black" fill-opacity="0" transform="translate(63.0001 19)"/>
<path d="M75.4205 36.7609H72.1753L67.7275 28.1375L65.8803 36.7609H63.0001L66.7553 19.2747H69.6355L67.8245 27.6233L75.3958 19.2747H78.7742L70.7655 27.9704L75.4205 36.7609Z" fill="#3D2E29"/>
<path d="M93.7837 25.733C93.7837 27.9579 93.3989 29.9395 92.6295 31.6776C91.8594 33.4157 90.8002 34.7371 89.4512 35.6422C88.1021 36.5473 86.5364 37 84.754 37C82.6559 37 81.0313 36.4041 79.8807 35.2122C78.7301 34.0199 78.1548 32.3714 78.1548 30.2662C78.1548 28.1375 78.5539 26.1936 79.3523 24.4355C80.1503 22.6774 81.2421 21.3317 82.6273 20.3993C84.0125 19.466 85.5846 19 87.3423 19C89.376 19 90.958 19.594 92.0884 20.782C93.2187 21.9699 93.7837 23.62 93.7837 25.733ZM87.1117 21.4515C85.9933 21.4515 84.9806 21.8345 84.0733 22.5999C83.1656 23.3653 82.4547 24.4281 81.9402 25.7874C81.4258 27.1472 81.1689 28.6325 81.1689 30.2431C81.1689 31.6224 81.4989 32.6867 82.1593 33.4365C82.8193 34.1858 83.7413 34.5607 84.9242 34.5607C86.0422 34.5607 87.0489 34.1799 87.9443 33.4185C88.8393 32.657 89.5362 31.6005 90.0344 30.2486C90.533 28.8971 90.7819 27.4003 90.7819 25.7573C90.7819 24.4018 90.4618 23.3453 89.8217 22.5878C89.1816 21.8299 88.2783 21.4515 87.1117 21.4515Z" fill="#3D2E29"/>
<path d="M108.829 24.0708C108.829 26.0484 108.142 27.5674 106.769 28.6278C105.396 29.6882 103.481 30.2184 101.027 30.2184H99.6903L98.2924 36.7609H95.4122L99.1675 19.2747H103.227C105.082 19.2747 106.48 19.6753 107.419 20.4767C108.359 21.2777 108.829 22.4762 108.829 24.0708ZM100.212 27.8143H101.355C102.797 27.8143 103.913 27.497 104.703 26.8631C105.493 26.2292 105.888 25.3304 105.888 24.1659C105.888 23.2968 105.651 22.6629 105.177 22.2642C104.703 21.8654 103.976 21.6663 102.996 21.6663H101.549L100.212 27.8143Z" fill="#3D2E29"/>
<path d="M109.655 36.7609L113.41 19.2747H116.376L113.107 34.3094H118.661L121.893 19.2747H124.859L121.626 34.3094H127.143L130.388 19.2747H133.317L129.562 36.7609H109.655Z" fill="#3D2E29"/>
<path d="M135.638 37C134.747 37 133.982 36.8803 133.342 36.6412V34.0457C134.006 34.3568 134.747 34.5122 135.566 34.5122C136.254 34.5122 136.868 34.3169 137.407 33.926C137.946 33.5355 138.543 32.8057 139.2 31.7371L135.59 19.2739H138.495L140.512 26.8932C140.828 28.1689 141.026 29.0501 141.108 29.5364C141.513 28.5958 141.906 27.8018 142.286 27.1562L146.832 19.2739H150.04L142.226 32.036C141.359 33.4553 140.616 34.4918 139.996 35.1457C139.376 35.7995 138.722 36.2718 138.033 36.5629C137.344 36.8545 136.546 37 135.638 37Z" fill="#3D2E29"/>
<path d="M161.245 36.7609H158.353L160.054 28.8786H153.175L151.486 36.7609H148.606L152.361 19.2747H155.241L153.698 26.4272H160.576L162.12 19.2747H165L161.245 36.7609Z" fill="#3D2E29"/>
<defs>
<linearGradient id="paint0_linear" x1="24.2966" y1="0" x2="24.2966" y2="52.5658" gradientUnits="userSpaceOnUse">
<stop stop-color="#83B944"/>
<stop offset="1" stop-color="#007905"/>
</linearGradient>
<linearGradient id="paint1_linear" x1="54.3405" y1="5.1615" x2="54.3405" y2="24.2295" gradientUnits="userSpaceOnUse">
<stop stop-color="#83B944"/>
<stop offset="1" stop-color="#007905"/>
</linearGradient>
</defs>
</svg>
