<svg width="166" height="53" viewBox="0 0 166 53" fill="none" xmlns="http://www.w3.org/2000/svg">
<rect width="165" height="52.5658" fill="black" fill-opacity="0" transform="translate(0.888794)"/>
<rect width="165" height="52.5658" fill="black" fill-opacity="0" transform="translate(0.888794)"/>
<rect width="63.7102" height="52.5658" fill="black" fill-opacity="0" transform="translate(0.888794)"/>
<path d="M19.7022 24.7718C17.7087 24.3649 11.3625 21.1953 7.67791 17.5948C6.09999 16.053 4.51462 14.4972 3.6334 12.4437C2.8101 10.5251 2.46451 8.50712 2.57428 6.43039C2.75742 2.96825 4.37174 0.490058 4.87758 -9.34714e-07C4.89634 0.0492238 10.286 14.2377 27.6332 24.2238C29.2942 25.1798 34.5285 23.0396 37.2867 21.7625C40.0448 20.4881 44.4578 19.3013 47.0311 21.0351C50.9862 24.1335 49.0556 27.4152 48.686 28.8728C48.3191 30.3331 48.3191 33.0678 48.3191 33.0678C48.3191 33.0678 46.8987 30.1854 44.8246 29.8764C41.3687 29.3623 37.7693 30.4589 35.0801 32.5126C30.6092 36.3604 30.5099 40.9383 31.7814 44.7532C33.0998 48.7048 35.891 51.8361 36.826 52.4842C33.4253 52.9382 32.5978 51.4806 29.1971 48.5326C29.0123 51.3274 26.8058 52.4842 26.8058 52.4842C24.4172 48.7377 23.3747 45.229 22.9885 42.2865C22.481 38.4251 23.1044 35.5318 23.3112 34.3422C22.1851 36.4102 20.3515 38.5845 17.8973 39.0743C16.2598 39.4011 11.5202 38.7642 9.26769 34.0698C13.4096 33.883 17.6295 33.5275 20.0544 31.3479C17.2202 32.5772 10.911 33.9787 6.36008 31.1073C4.4749 29.9177 3.60195 27.6205 3.63643 25.6037C8.87686 27.9624 13.9794 29.0048 18.9357 28.3677C14.1518 28.0307 3.78372 27.1545 1.2046 20.2139C0.513961 18.3556 1.08765 14.3564 1.67127 13.6733C8.18706 20.4873 17.7715 24.783 19.7022 24.7718Z" fill="url(#paint0_linear)"/>
<path d="M64.1048 5.1615C64.6619 6.25538 65.0356 9.60539 63.5876 11.1778C62.5519 12.3026 59.2935 14.4953 54.7586 16.1383C59.5539 14.693 61.3811 13.6391 64.1737 11.5197C64.3116 12.1692 64.2121 13.7285 62.5878 15.0406C60.6235 16.6276 55.3218 18.0108 54.9848 18.1051C58.1058 17.7753 62.9008 15.7475 63.1394 15.5534C63.1394 16.3396 62.6173 17.3785 61.7604 18.0146C59.5152 19.6809 55.8334 19.8264 54.3824 20.0315C56.6868 20.061 59.3815 19.6896 60.2779 19.3251C60.1653 19.6713 59.1484 20.5959 58.3717 21.0586C56.6233 22.0997 55.1649 22.6666 53.3644 23.3577C53.2209 23.4127 50.5411 24.3012 50.5254 24.2249C50.524 24.2188 49.6265 19.8947 45.8595 19.4391C51.969 16.408 61.4156 9.57121 64.1048 5.1615Z" fill="url(#paint1_linear)"/>
<rect width="128" height="9" fill="black" fill-opacity="0" transform="translate(37.8888 42)"/>
<path d="M39.6935 48.9467C39.1214 48.9467 38.6774 48.7928 38.3618 48.4855C38.0462 48.1782 37.8888 47.7388 37.8888 47.1675C37.8888 46.5674 37.9964 46.0212 38.2105 45.53C38.4254 45.0381 38.7271 44.6542 39.1153 44.3768C39.5035 44.0999 39.9447 43.9618 40.438 43.9618C40.9171 43.9618 41.3506 44.0505 41.7387 44.227L41.4321 45.0275C41.0757 44.8736 40.7532 44.7971 40.4641 44.7971C40.0262 44.7971 39.6609 45.0198 39.3689 45.4644C39.077 45.9098 38.931 46.4601 38.931 47.1152C38.931 47.4372 39.0125 47.685 39.1765 47.8591C39.3404 48.0332 39.5663 48.1202 39.8554 48.1202C40.0715 48.1202 40.2737 48.0883 40.4617 48.0247C40.6505 47.9611 40.8393 47.8826 41.0293 47.7898V48.6381C40.6203 48.8438 40.1754 48.9467 39.6935 48.9467Z" fill="#1E1C1C"/>
<path d="M45.1904 43.9622C45.8326 43.9622 46.2036 44.3031 46.3031 44.9842H46.3382C46.5572 44.6477 46.8059 44.3934 47.0848 44.2205C47.3641 44.048 47.654 43.9618 47.9545 43.9618C48.3427 43.9618 48.6387 44.0723 48.8418 44.2946C49.0444 44.5161 49.1459 44.8287 49.1459 45.2316C49.1459 45.4171 49.1137 45.6794 49.0497 46.0187L48.4365 48.8592H47.4073L48.0336 45.9361C48.0891 45.6604 48.1168 45.4681 48.1168 45.3575C48.1168 44.9834 47.9398 44.7963 47.5867 44.7963C47.2715 44.7963 46.9771 44.9761 46.7043 45.3357C46.4312 45.6952 46.2318 46.1722 46.1062 46.7666L45.6638 48.8588H44.6346L45.2609 45.9357C45.3107 45.6981 45.3355 45.5138 45.3355 45.3834C45.3355 44.9919 45.1647 44.7963 44.823 44.7963C44.5017 44.7963 44.2044 44.9806 43.9313 45.3486C43.6585 45.7167 43.4562 46.207 43.3249 46.8189L42.8956 48.8588H41.8619L42.8956 44.0481H43.7017L43.6095 44.9397H43.6491C44.0809 44.2881 44.5947 43.9622 45.1904 43.9622Z" fill="#1E1C1C"/>
<path d="M50.0613 44.0493H51.0774L51.3534 46.3589C51.3795 46.5387 51.4032 46.7918 51.4236 47.1178C51.444 47.4445 51.4542 47.7073 51.4542 47.9073H51.4803C51.7314 47.2837 51.9288 46.8302 52.0715 46.546L53.3547 44.0493H54.4674L51.4538 49.6169C51.1908 50.0955 50.9045 50.4457 50.5954 50.6672C50.286 50.8895 49.9227 51 49.5047 51C49.2829 51 49.0737 50.9725 48.8784 50.9174V50.0995C49.0974 50.1457 49.2796 50.1692 49.426 50.1692C49.6421 50.1692 49.8379 50.1064 50.0128 49.9797C50.1881 49.8537 50.3691 49.6282 50.5559 49.3035L50.7793 48.9034L50.0613 44.0493Z" fill="#1E1C1C"/>
<path d="M58.9265 44.7797C58.9265 45.5628 58.8074 46.2824 58.5697 46.9395C58.3316 47.5959 58.005 48.0952 57.5907 48.4357C57.176 48.7762 56.6973 48.9467 56.1542 48.9467C55.6082 48.9467 55.1846 48.7863 54.8841 48.4657C54.5836 48.1454 54.4331 47.7008 54.4331 47.1327C54.4331 46.6136 54.5253 46.135 54.7092 45.6973C54.893 45.2596 55.1524 44.915 55.4867 44.6639C55.8207 44.4133 56.1966 44.2878 56.6145 44.2878C57.1723 44.2878 57.5887 44.5473 57.8631 45.0664H57.8892L57.8977 44.9186V44.7967C57.8977 44.1242 57.8023 43.6294 57.6107 43.3135C57.4195 42.9977 57.1198 42.8394 56.7108 42.8394C56.398 42.8394 56.0947 42.9046 55.7999 43.035L55.5634 42.2478C55.7473 42.1697 55.9569 42.1085 56.1917 42.0652C56.427 42.0219 56.648 42 56.8555 42C58.2358 42.0004 58.9265 42.9268 58.9265 44.7797ZM56.237 48.1117C56.5933 48.1117 56.9037 47.9178 57.1679 47.5291C57.4317 47.1404 57.6237 46.6071 57.7436 45.9285C57.6674 45.6673 57.5467 45.4616 57.3799 45.311C57.2131 45.1603 57.0178 45.0846 56.7931 45.0846C56.5505 45.0846 56.3271 45.1753 56.1228 45.3567C55.9185 45.5377 55.7591 45.7871 55.6453 46.105C55.5316 46.422 55.4745 46.7711 55.4745 47.1509C55.4745 47.4582 55.5418 47.6955 55.6759 47.8623C55.8105 48.0283 55.9976 48.1117 56.237 48.1117Z" fill="#1E1C1C"/>
<path d="M61.4583 44.0493L60.8931 46.7027C60.8026 47.1117 60.7574 47.3915 60.7574 47.5421C60.7574 47.9276 60.9429 48.1207 61.3135 48.1207C61.5239 48.1207 61.7323 48.0381 61.9398 47.8729C62.1473 47.7077 62.3312 47.4721 62.4919 47.1663C62.6525 46.8602 62.7765 46.5011 62.8642 46.0897L63.2976 44.0497H64.3182L63.2976 48.8605H62.4874L62.5796 47.9689H62.5445C62.3052 48.3054 62.0556 48.5524 61.7955 48.7103C61.5353 48.8686 61.2552 48.9475 60.9543 48.9475C60.5628 48.9475 60.2607 48.8374 60.0475 48.6171C59.8342 48.3969 59.7278 48.0806 59.7278 47.6688C59.7278 47.4862 59.7453 47.306 59.7804 47.127C59.8155 46.9493 59.8505 46.7699 59.8856 46.5901L60.4242 44.0501H61.4583V44.0493Z" fill="#1E1C1C"/>
<path d="M67.196 47.0157C67.0121 47.0157 66.8551 47.0635 66.7255 47.159C66.5954 47.2546 66.478 47.4068 66.3728 47.6158C66.1538 48.0393 65.9821 48.3276 65.8582 48.4815C65.7338 48.6353 65.5952 48.7483 65.4419 48.8208C65.289 48.8933 65.1055 48.9297 64.8922 48.9297C64.6847 48.9297 64.5171 48.9038 64.3887 48.8515V48.0207C64.4939 48.0583 64.5873 48.0774 64.6692 48.0774C64.7976 48.0774 64.9073 48.0381 64.9978 47.9599C65.0884 47.8818 65.1879 47.7364 65.2955 47.5251C65.4415 47.2525 65.5773 47.057 65.7028 46.9379C65.8284 46.8189 65.9671 46.7351 66.1191 46.6857C65.6111 46.5144 65.3571 46.1621 65.3571 45.6289C65.3571 45.1417 65.5349 44.7571 65.8892 44.4736C66.2443 44.1914 66.7308 44.0497 67.3502 44.0497H69.2776L68.257 48.8604H67.2319L67.6392 47.0161H67.196V47.0157ZM67.2792 44.832C67.0048 44.832 66.7879 44.9016 66.6288 45.0409C66.4694 45.1802 66.3899 45.3729 66.3899 45.6195C66.3899 45.837 66.4608 45.9965 66.6023 46.0981C66.7438 46.1998 66.9355 46.2504 67.1781 46.2504H67.7958L68.0935 44.8324H67.2792V44.832Z" fill="#1E1C1C"/>
<path d="M74.1037 44.0493L73.6919 45.9807H75.6279L76.0442 44.0493H77.0648L76.0442 48.8601H75.0106L75.4485 46.7853H73.5211L73.0742 48.8601H72.0405L73.0831 44.0493H74.1037Z" fill="#1E1C1C"/>
<path d="M79.0269 48.9467C78.615 48.9467 78.2892 48.7997 78.0499 48.5053C77.8105 48.2106 77.6907 47.7967 77.6907 47.2635C77.6907 46.678 77.7922 46.1297 77.9948 45.6191C78.1979 45.1085 78.4776 44.7048 78.834 44.408C79.1904 44.1108 79.5814 43.9618 80.0079 43.9618C80.2909 43.9618 80.5351 44.0278 80.7394 44.1594C80.9437 44.2914 81.1031 44.4837 81.2169 44.736H81.2605L81.532 44.0488H82.3206L81.287 48.8596H80.4899L80.582 48.0939H80.5559C80.0939 48.6624 79.5847 48.9467 79.0269 48.9467ZM79.4036 48.1202C79.643 48.1202 79.8782 48.0081 80.1086 47.7834C80.339 47.5582 80.529 47.2574 80.6778 46.8808C80.8267 46.5042 80.9013 46.092 80.9013 45.6454C80.9013 45.3903 80.8328 45.185 80.6954 45.0295C80.5579 44.8745 80.3785 44.7971 80.1567 44.7971C79.9088 44.7971 79.6748 44.9085 79.4558 45.132C79.2368 45.3555 79.0615 45.6592 78.9302 46.0435C78.7989 46.4273 78.7333 46.8257 78.7333 47.2371C78.7333 47.5327 78.7924 47.7538 78.9111 47.9004C79.0289 48.0474 79.1932 48.1202 79.4036 48.1202Z" fill="#1E1C1C"/>
<path d="M86.0087 43.9622C86.6509 43.9622 87.022 44.3031 87.1215 44.9842H87.1565C87.3755 44.6477 87.6242 44.3934 87.9031 44.2205C88.1824 44.048 88.4724 43.9618 88.7729 43.9618C89.161 43.9618 89.4571 44.0723 89.6601 44.2946C89.8628 44.5161 89.9643 44.8287 89.9643 45.2316C89.9643 45.4171 89.9321 45.6794 89.8681 46.0187L89.2548 48.8592H88.2257L88.852 45.9361C88.9074 45.6604 88.9351 45.4681 88.9351 45.3575C88.9351 44.9834 88.7582 44.7963 88.4051 44.7963C88.0899 44.7963 87.7955 44.9761 87.5227 45.3357C87.2495 45.6952 87.0501 46.1722 86.9245 46.7666L86.4821 48.8588H85.453L86.0793 45.9357C86.129 45.6981 86.1539 45.5138 86.1539 45.3834C86.1539 44.9919 85.983 44.7963 85.6413 44.7963C85.32 44.7963 85.0228 44.9806 84.7496 45.3486C84.4768 45.7167 84.2746 46.207 84.1433 46.8189L83.7139 48.8588H82.6803L83.7139 44.0481H84.52L84.4279 44.9397H84.4675C84.8989 44.2881 85.413 43.9622 86.0087 43.9622Z" fill="#1E1C1C"/>
<path d="M93.1046 47.0157C92.9203 47.0157 92.7638 47.0635 92.6337 47.159C92.5036 47.2546 92.3862 47.4068 92.281 47.6158C92.062 48.0393 91.8904 48.3276 91.7664 48.4815C91.642 48.6353 91.5034 48.7483 91.3501 48.8208C91.1972 48.8933 91.0137 48.9297 90.8004 48.9297C90.5929 48.9297 90.4253 48.9038 90.2969 48.8515V48.0207C90.4021 48.0583 90.4954 48.0774 90.5774 48.0774C90.7058 48.0774 90.8155 48.0381 90.9061 47.9599C90.9966 47.8818 91.0961 47.7364 91.2037 47.5251C91.3497 47.2525 91.4855 47.057 91.6111 46.9379C91.7366 46.8189 91.8753 46.7351 92.0274 46.6857C91.5193 46.5144 91.2653 46.1621 91.2653 45.6289C91.2653 45.1417 91.4431 44.7571 91.7974 44.4736C92.1525 44.1914 92.639 44.0497 93.2583 44.0497H95.1858L94.1652 48.8604H93.1401L93.5474 47.0161H93.1046V47.0157ZM93.1878 44.832C92.9134 44.832 92.6961 44.9016 92.5374 45.0409C92.378 45.1802 92.2985 45.3729 92.2985 45.6195C92.2985 45.837 92.3695 45.9965 92.5109 46.0981C92.6524 46.1998 92.8441 46.2504 93.0871 46.2504H93.7048L94.0025 44.8324H93.1878V44.832Z" fill="#1E1C1C"/>
<path d="M98.8861 46.8198H98.1941C98.0363 47.4781 97.7501 47.9968 97.3358 48.377C96.9215 48.7573 96.4265 48.9468 95.8508 48.9468C95.6522 48.9468 95.4638 48.9265 95.2856 48.886L95.4475 48.0681C95.5878 48.1029 95.7191 48.1203 95.8418 48.1203C96.1195 48.1203 96.3674 48.0175 96.5864 47.8114C96.8053 47.6053 96.977 47.3243 97.1009 46.9675C97.2253 46.6108 97.2873 46.2326 97.2873 45.8322C97.2873 45.4928 97.2224 45.2353 97.092 45.0604C96.9623 44.8847 96.7788 44.7972 96.5423 44.7972C96.3788 44.7972 96.208 44.8276 96.0298 44.8887V44.0578C96.2516 43.9943 96.4824 43.9623 96.7217 43.9623C97.2269 43.9623 97.6196 44.123 97.9001 44.4449C98.1806 44.7668 98.3205 45.2236 98.3205 45.8152C98.3205 45.8933 98.3132 45.9876 98.2985 46.0978H99.0345L99.4769 44.0489H100.445L99.998 46.0978H100.694C100.855 45.4337 101.142 44.9118 101.555 44.532C101.968 44.1522 102.46 43.9623 103.029 43.9623C103.271 43.9623 103.471 43.9825 103.629 44.023L103.45 44.8409C103.321 44.8122 103.184 44.7976 103.038 44.7976C102.775 44.7976 102.537 44.8924 102.321 45.0823C102.107 45.2726 101.935 45.5479 101.804 45.9087C101.675 46.2703 101.609 46.6594 101.609 47.0769C101.609 47.4101 101.671 47.6676 101.795 47.8486C101.92 48.03 102.103 48.1207 102.345 48.1207C102.491 48.1207 102.662 48.0875 102.858 48.0207V48.8601C102.654 48.9184 102.426 48.9472 102.175 48.9472C101.673 48.9472 101.281 48.7897 101.001 48.475C100.72 48.1608 100.58 47.7049 100.58 47.1072V46.9639L100.589 46.8206H99.8443L99.4019 48.8605H98.4424L98.8861 46.8198Z" fill="#1E1C1C"/>
<path d="M105.728 44.0492L105.316 45.9807H107.252L107.669 44.0492H108.689L107.669 48.86H106.635L107.073 46.7852H105.146L104.699 48.8596H103.665L104.708 44.0488H105.728V44.0492Z" fill="#1E1C1C"/>
<path d="M111.129 44.0492L110.691 46.0807C111.056 46.0082 111.362 45.9718 111.611 45.9718C112.055 45.9718 112.402 46.0847 112.653 46.3111C112.905 46.5374 113.03 46.8488 113.03 47.2464C113.03 47.7655 112.852 48.179 112.498 48.4863C112.143 48.7936 111.656 48.9475 111.037 48.9475C110.488 48.9475 110.08 48.8256 109.815 48.5822C109.55 48.3389 109.416 47.9979 109.416 47.5602C109.416 47.3108 109.448 47.0355 109.512 46.7338L110.095 44.05H111.129V44.0492ZM111.265 46.7415C111.054 46.7415 110.809 46.7702 110.529 46.8285C110.511 46.9128 110.496 46.9861 110.483 47.048C110.469 47.1104 110.46 47.1679 110.454 47.2201C110.449 47.2723 110.444 47.3209 110.441 47.3659C110.438 47.4104 110.437 47.4578 110.437 47.5072C110.437 47.9566 110.665 48.1814 111.12 48.1814C111.392 48.1814 111.608 48.1065 111.769 47.9575C111.929 47.808 112.01 47.6072 112.01 47.355C112.01 47.1314 111.947 46.9739 111.821 46.8808C111.696 46.7877 111.51 46.7415 111.265 46.7415ZM114.493 48.8596H113.468L114.493 44.0488H115.522L114.493 48.8596Z" fill="#1E1C1C"/>
<path d="M117.883 47.1764L116.547 48.8596H115.364L117.445 46.3848L116.434 44.0488H117.507L118.138 45.6713L119.395 44.0488H120.595L118.575 46.4366L119.662 48.8592H118.584L117.883 47.1764Z" fill="#1E1C1C"/>
<path d="M125.666 48.8596L126.288 45.9366C126.341 45.6754 126.367 45.4859 126.367 45.3668C126.367 44.987 126.178 44.7971 125.802 44.7971C125.591 44.7971 125.384 44.8797 125.18 45.0449C124.975 45.2101 124.792 45.4486 124.628 45.7604C124.464 46.0726 124.341 46.4257 124.26 46.8197L123.831 48.8596H122.797L123.831 44.0488H124.637L124.544 44.9405H124.584C124.827 44.5983 125.076 44.3497 125.333 44.1942C125.59 44.0391 125.869 43.9618 126.17 43.9618C126.561 43.9618 126.864 44.0719 127.079 44.2922C127.293 44.5125 127.4 44.8255 127.4 45.2316C127.4 45.4316 127.367 45.6944 127.3 46.0187L126.699 48.8592H125.666V48.8596Z" fill="#1E1C1C"/>
<path d="M132.608 45.85C132.608 46.4355 132.502 46.9688 132.289 47.4482C132.076 47.9284 131.783 48.2969 131.41 48.5532C131.039 48.8103 130.61 48.9383 130.125 48.9383C129.565 48.9383 129.119 48.7722 128.789 48.4402C128.459 48.1086 128.294 47.6567 128.294 47.0854C128.294 46.5084 128.399 45.9791 128.608 45.4977C128.817 45.0167 129.109 44.6417 129.486 44.3737C129.863 44.1052 130.298 43.9712 130.791 43.9712C131.36 43.9712 131.806 44.1392 132.127 44.4757C132.448 44.8122 132.608 45.2697 132.608 45.85ZM131.571 45.8063C131.571 45.4957 131.499 45.2531 131.356 45.0778C131.213 44.9021 131.008 44.8146 130.743 44.8146C130.471 44.8146 130.228 44.9183 130.014 45.1256C129.799 45.3333 129.632 45.6143 129.514 45.9694C129.396 46.325 129.337 46.704 129.337 47.1072C129.337 47.4292 129.409 47.6753 129.553 47.8466C129.698 48.0179 129.912 48.1033 130.195 48.1033C130.458 48.1033 130.694 48.0049 130.904 47.8077C131.114 47.6105 131.278 47.3344 131.395 46.9789C131.512 46.6234 131.571 46.2326 131.571 45.8063Z" fill="#1E1C1C"/>
<path d="M136.56 43.9622C137.202 43.9622 137.573 44.3031 137.672 44.9842H137.707C137.926 44.6477 138.175 44.3934 138.454 44.2205C138.733 44.048 139.023 43.9618 139.324 43.9618C139.712 43.9618 140.008 44.0723 140.211 44.2946C140.414 44.5161 140.515 44.8287 140.515 45.2316C140.515 45.4171 140.483 45.6794 140.419 46.0187L139.806 48.8592H138.777L139.403 45.9361C139.458 45.6604 139.486 45.4681 139.486 45.3575C139.486 44.9834 139.309 44.7963 138.956 44.7963C138.641 44.7963 138.346 44.9761 138.074 45.3357C137.8 45.6952 137.601 46.1722 137.475 46.7666L137.033 48.8588H136.004L136.63 45.9357C136.68 45.6981 136.705 45.5138 136.705 45.3834C136.705 44.9919 136.534 44.7963 136.192 44.7963C135.871 44.7963 135.574 44.9806 135.301 45.3486C135.028 45.7167 134.825 46.207 134.694 46.8189L134.265 48.8588H133.231L134.265 44.0481H135.071L134.979 44.9397H135.018C135.45 44.2881 135.964 43.9622 136.56 43.9622Z" fill="#1E1C1C"/>
<path d="M145.718 45.85C145.718 46.4355 145.611 46.9688 145.399 47.4482C145.186 47.9284 144.893 48.2969 144.52 48.5532C144.148 48.8103 143.719 48.9383 143.235 48.9383C142.674 48.9383 142.229 48.7722 141.899 48.4402C141.569 48.1086 141.404 47.6567 141.404 47.0854C141.404 46.5084 141.509 45.9791 141.717 45.4977C141.927 45.0167 142.219 44.6417 142.596 44.3737C142.972 44.1052 143.408 43.9712 143.901 43.9712C144.47 43.9712 144.915 44.1392 145.237 44.4757C145.558 44.8122 145.718 45.2697 145.718 45.85ZM144.68 45.8063C144.68 45.4957 144.608 45.2531 144.466 45.0778C144.323 44.9021 144.118 44.8146 143.852 44.8146C143.581 44.8146 143.337 44.9183 143.123 45.1256C142.908 45.3333 142.742 45.6143 142.624 45.9694C142.505 46.325 142.446 46.704 142.446 47.1072C142.446 47.4292 142.519 47.6753 142.663 47.8466C142.807 48.0179 143.021 48.1033 143.304 48.1033C143.567 48.1033 143.804 48.0049 144.014 47.8077C144.224 47.6105 144.388 47.3344 144.504 46.9789C144.621 46.6234 144.68 46.2326 144.68 45.8063Z" fill="#1E1C1C"/>
<path d="M150.055 48.8596H149.021L149.883 44.8579C149.775 44.8344 149.673 44.8231 149.577 44.8231C149.366 44.8231 149.193 44.8692 149.056 44.9623C148.918 45.0555 148.791 45.2101 148.672 45.4276C148.555 45.645 148.387 46.0698 148.171 46.7018C147.917 47.4299 147.713 47.9222 147.558 48.1781C147.403 48.4353 147.225 48.6256 147.024 48.7503C146.822 48.875 146.58 48.9374 146.297 48.9374C146.11 48.9374 145.942 48.9086 145.793 48.8503V47.9935C145.898 48.0368 146.009 48.0587 146.126 48.0587C146.269 48.0587 146.394 48.0117 146.502 47.917C146.611 47.8231 146.715 47.6793 146.816 47.4866C146.917 47.2934 147.066 46.9128 147.265 46.3447C147.478 45.7386 147.657 45.3045 147.802 45.0421C147.946 44.7797 148.106 44.5736 148.281 44.4246C148.456 44.2752 148.662 44.1646 148.899 44.0942C149.135 44.0229 149.422 43.9873 149.757 43.9873C150.213 43.9873 150.644 44.0497 151.049 44.1744L150.055 48.8596Z" fill="#1E1C1C"/>
<path d="M155.179 44.0493H156.397L154.146 46.446L155.574 48.8601H154.391L153.042 46.4897L152.542 48.8601H151.509L152.542 44.0493H153.563L153.081 46.3286L155.179 44.0493Z" fill="#1E1C1C"/>
<path d="M160.755 45.85C160.755 46.4355 160.649 46.9688 160.436 47.4482C160.223 47.9284 159.93 48.2969 159.557 48.5532C159.186 48.8103 158.757 48.9383 158.272 48.9383C157.712 48.9383 157.266 48.7722 156.936 48.4402C156.606 48.1086 156.441 47.6567 156.441 47.0854C156.441 46.5084 156.546 45.9791 156.755 45.4977C156.964 45.0167 157.256 44.6417 157.633 44.3737C158.01 44.1052 158.445 43.9712 158.938 43.9712C159.507 43.9712 159.953 44.1392 160.274 44.4757C160.595 44.8122 160.755 45.2697 160.755 45.85ZM159.717 45.8063C159.717 45.4957 159.645 45.2531 159.503 45.0778C159.36 44.9021 159.155 44.8146 158.89 44.8146C158.618 44.8146 158.375 44.9183 158.16 45.1256C157.946 45.3333 157.779 45.6143 157.661 45.9694C157.542 46.325 157.483 46.704 157.483 47.1072C157.483 47.4292 157.556 47.6753 157.7 47.8466C157.844 48.0179 158.059 48.1033 158.341 48.1033C158.604 48.1033 158.841 48.0049 159.051 47.8077C159.261 47.6105 159.425 47.3344 159.542 46.9789C159.659 46.6234 159.717 46.2326 159.717 45.8063Z" fill="#1E1C1C"/>
<path d="M164.202 43.9623C164.737 43.9623 165.151 44.0712 165.446 44.2886C165.742 44.5061 165.889 44.815 165.889 45.2151C165.889 45.8528 165.509 46.2573 164.75 46.4286V46.446C165.313 46.5967 165.595 46.9287 165.595 47.4421C165.595 47.732 165.516 47.9903 165.356 48.2163C165.197 48.4426 164.966 48.6208 164.662 48.7512C164.359 48.8816 163.994 48.9468 163.567 48.9468C162.925 48.9468 162.434 48.7779 162.094 48.4398C161.753 48.1021 161.583 47.6158 161.583 46.9805C161.583 46.4035 161.691 45.8836 161.907 45.4208C162.123 44.9584 162.43 44.5996 162.827 44.3445C163.224 44.0894 163.682 43.9623 164.202 43.9623ZM162.626 46.7938L162.617 46.9113V47.0331C162.617 47.4044 162.699 47.6883 162.865 47.8855C163.029 48.0827 163.276 48.1811 163.603 48.1811C163.909 48.1811 164.149 48.1122 164.321 47.9746C164.494 47.8365 164.58 47.6531 164.58 47.4243C164.58 47.2129 164.497 47.0546 164.332 46.9501C164.167 46.8457 163.901 46.7934 163.533 46.7934H162.626V46.7938ZM164.185 44.745C163.837 44.745 163.539 44.8596 163.291 45.0887C163.044 45.3179 162.862 45.637 162.748 46.0456H163.681C164.069 46.0456 164.366 45.9787 164.571 45.8455C164.775 45.7123 164.877 45.5297 164.877 45.2973C164.877 45.1349 164.819 45.0021 164.704 44.8993C164.589 44.7964 164.415 44.745 164.185 44.745Z" fill="#1E1C1C"/>
<rect width="102" height="18" fill="black" fill-opacity="0" transform="translate(63.8888 19)"/>
<path d="M76.3092 36.7609H73.064L68.6162 28.1375L66.769 36.7609H63.8888L67.6441 19.2747H70.5242L68.7132 27.6233L76.2845 19.2747H79.6629L71.6542 27.9704L76.3092 36.7609Z" fill="#3D2E29"/>
<path d="M94.6724 25.733C94.6724 27.9579 94.2876 29.9395 93.5182 31.6776C92.7481 33.4157 91.6889 34.7371 90.3399 35.6422C88.9908 36.5473 87.4251 37 85.6427 37C83.5446 37 81.9201 36.4041 80.7694 35.2122C79.6188 34.0199 79.0435 32.3714 79.0435 30.2662C79.0435 28.1375 79.4426 26.1936 80.241 24.4355C81.039 22.6774 82.1308 21.3317 83.516 20.3993C84.9012 19.466 86.4733 19 88.231 19C90.2647 19 91.8467 19.594 92.9771 20.782C94.1075 21.9699 94.6724 23.62 94.6724 25.733ZM88.0004 21.4515C86.882 21.4515 85.8693 21.8345 84.962 22.5999C84.0543 23.3653 83.3434 24.4281 82.8289 25.7874C82.3145 27.1472 82.0576 28.6325 82.0576 30.2431C82.0576 31.6224 82.3876 32.6867 83.048 33.4365C83.708 34.1858 84.63 34.5607 85.8129 34.5607C86.9309 34.5607 87.9376 34.1799 88.833 33.4185C89.728 32.657 90.4249 31.6005 90.9231 30.2486C91.4217 28.8971 91.6706 27.4003 91.6706 25.7573C91.6706 24.4018 91.3505 23.3453 90.7104 22.5878C90.0703 21.8299 89.167 21.4515 88.0004 21.4515Z" fill="#3D2E29"/>
<path d="M109.718 24.0708C109.718 26.0484 109.031 27.5674 107.658 28.6278C106.285 29.6882 104.37 30.2184 101.916 30.2184H100.579L99.1812 36.7609H96.301L100.056 19.2747H104.115C105.97 19.2747 107.368 19.6753 108.308 20.4767C109.248 21.2777 109.718 22.4762 109.718 24.0708ZM101.101 27.8143H102.244C103.686 27.8143 104.802 27.497 105.592 26.8631C106.382 26.2292 106.777 25.3304 106.777 24.1659C106.777 23.2968 106.539 22.6629 106.066 22.2642C105.592 21.8654 104.865 21.6663 103.884 21.6663H102.438L101.101 27.8143Z" fill="#3D2E29"/>
<path d="M110.544 36.7609L114.299 19.2747H117.264L113.995 34.3094H119.549L122.782 19.2747H125.747L122.515 34.3094H128.032L131.277 19.2747H134.205L130.451 36.7609H110.544Z" fill="#3D2E29"/>
<path d="M136.527 37C135.636 37 134.87 36.8803 134.23 36.6412V34.0457C134.894 34.3568 135.636 34.5122 136.454 34.5122C137.143 34.5122 137.756 34.3169 138.295 33.926C138.834 33.5355 139.432 32.8057 140.088 31.7371L136.479 19.2739H139.384L141.401 26.8932C141.717 28.1689 141.915 29.0501 141.996 29.5364C142.401 28.5958 142.794 27.8018 143.175 27.1562L147.721 19.2739H150.929L143.115 32.036C142.248 33.4553 141.504 34.4918 140.885 35.1457C140.265 35.7995 139.611 36.2718 138.922 36.5629C138.233 36.8545 137.435 37 136.527 37Z" fill="#3D2E29"/>
<path d="M162.133 36.7609H159.241L160.943 28.8786H154.064L152.375 36.7609H149.494L153.25 19.2747H156.13L154.586 26.4272H161.465L163.009 19.2747H165.889L162.133 36.7609Z" fill="#3D2E29"/>
<defs>
<linearGradient id="paint0_linear" x1="25.1854" y1="0" x2="25.1854" y2="52.5658" gradientUnits="userSpaceOnUse">
<stop stop-color="#83B944"/>
<stop offset="1" stop-color="#007905"/>
</linearGradient>
<linearGradient id="paint1_linear" x1="55.2293" y1="5.1615" x2="55.2293" y2="24.2295" gradientUnits="userSpaceOnUse">
<stop stop-color="#83B944"/>
<stop offset="1" stop-color="#007905"/>
</linearGradient>
</defs>
</svg>
