<svg width="126" height="41" viewBox="0 0 126 41" fill="none" xmlns="http://www.w3.org/2000/svg">
<rect width="125.557" height="40" fill="black" fill-opacity="0" transform="translate(0.22168 0.5271)"/>
<rect width="125.557" height="40" fill="black" fill-opacity="0" transform="translate(0.22168 0.5271)"/>
<rect width="48.4804" height="40" fill="black" fill-opacity="0" transform="translate(0.22168 0.5271)"/>
<path d="M14.5378 19.3772C13.0208 19.0676 8.19165 16.6557 5.38787 13.9159C4.18715 12.7426 2.98076 11.5588 2.31019 9.99617C1.6837 8.53616 1.42072 7.00061 1.50425 5.42031C1.64361 2.78579 2.87204 0.90001 3.25696 0.527099C3.27123 0.564557 7.37249 11.3613 20.5729 18.9602C21.8368 19.6877 25.8199 18.0591 27.9187 17.0873C30.0175 16.1176 33.3755 15.2144 35.3337 16.5338C38.3434 18.8915 36.8742 21.3887 36.593 22.4979C36.3139 23.6091 36.3139 25.6901 36.3139 25.6901C36.3139 25.6901 35.233 23.4967 33.6547 23.2616C31.0249 22.8704 28.286 23.7048 26.2396 25.2676C22.8375 28.1956 22.7619 31.6791 23.7295 34.5821C24.7327 37.5891 26.8567 39.9718 27.5682 40.465C24.9804 40.8105 24.3507 39.7013 21.7629 37.458C21.6223 39.5848 19.9432 40.465 19.9432 40.465C18.1257 37.6141 17.3323 34.9442 17.0385 32.7051C16.6523 29.7667 17.1267 27.565 17.2841 26.6598C16.4271 28.2335 15.0318 29.888 13.1643 30.2607C11.9183 30.5094 8.3117 30.0248 6.59761 26.4526C9.74937 26.3104 12.9605 26.0399 14.8058 24.3814C12.6491 25.3168 7.84808 26.3833 4.38506 24.1982C2.95053 23.293 2.28626 21.545 2.3125 20.0103C6.30021 21.8051 10.183 22.5984 13.9545 22.1135C10.3142 21.8571 2.42457 21.1904 0.461989 15.9089C-0.06355 14.4948 0.372997 11.4516 0.817103 10.9318C5.7753 16.117 13.0686 19.3858 14.5378 19.3772Z" fill="url(#paint0_linear)"/>
<path d="M48.3259 4.45471C48.7499 5.2871 49.0342 7.8363 47.9324 9.03286C47.1443 9.88877 44.6648 11.5573 41.2139 12.8075C44.8629 11.7078 46.2533 10.9057 48.3784 9.29298C48.4833 9.78722 48.4075 10.9738 47.1716 11.9722C45.6768 13.1798 41.6425 14.2324 41.386 14.3042C43.761 14.0532 47.4098 12.5102 47.5913 12.3624C47.5913 12.9607 47.194 13.7513 46.5419 14.2353C44.8335 15.5032 42.0318 15.614 40.9276 15.77C42.6812 15.7925 44.7317 15.5099 45.4138 15.2325C45.3282 15.496 44.5544 16.1995 43.9633 16.5516C42.6329 17.3439 41.5231 17.7753 40.153 18.3011C40.0438 18.343 38.0046 19.0191 37.9927 18.961C37.9916 18.9564 37.3087 15.666 34.4421 15.3193C39.0912 13.0127 46.2796 7.81029 48.3259 4.45471Z" fill="url(#paint1_linear)"/>
<rect width="97.4017" height="6.84863" fill="black" fill-opacity="0" transform="translate(28.3767 32.4871)"/>
<path d="M29.75 37.7731C29.3147 37.7731 28.9768 37.656 28.7366 37.4222C28.4965 37.1883 28.3767 36.854 28.3767 36.4192C28.3767 35.9626 28.4586 35.547 28.6215 35.1732C28.785 34.7988 29.0146 34.5067 29.31 34.2957C29.6054 34.0849 29.9411 33.9799 30.3166 33.9799C30.6811 33.9799 31.0109 34.0473 31.3063 34.1817L31.073 34.7908C30.8018 34.6737 30.5564 34.6155 30.3364 34.6155C30.0032 34.6155 29.7252 34.785 29.503 35.1233C29.2809 35.4622 29.1698 35.8809 29.1698 36.3795C29.1698 36.6244 29.2318 36.813 29.3566 36.9455C29.4813 37.078 29.6532 37.1442 29.8732 37.1442C30.0376 37.1442 30.1915 37.1199 30.3345 37.0715C30.4782 37.0232 30.6219 36.9634 30.7665 36.8928V37.5383C30.4552 37.6949 30.1167 37.7731 29.75 37.7731Z" fill="#1E1C1C"/>
<path d="M33.9329 33.9802C34.4216 33.9802 34.704 34.2396 34.7797 34.7579H34.8064C34.973 34.5018 35.1622 34.3083 35.3745 34.1767C35.587 34.0455 35.8076 33.9799 36.0363 33.9799C36.3317 33.9799 36.5569 34.064 36.7114 34.2331C36.8657 34.4017 36.9429 34.6395 36.9429 34.9461C36.9429 35.0872 36.9184 35.2869 36.8697 35.5451L36.403 37.7066H35.6199L36.0965 35.4822C36.1387 35.2724 36.1598 35.1261 36.1598 35.0419C36.1598 34.7572 36.0251 34.6149 35.7564 34.6149C35.5166 34.6149 35.2926 34.7517 35.085 35.0253C34.8771 35.2989 34.7254 35.6619 34.6298 36.1142L34.2932 37.7063H33.51L33.9866 35.4819C34.0245 35.3011 34.0434 35.1609 34.0434 35.0617C34.0434 34.7637 33.9134 34.6149 33.6534 34.6149C33.4089 34.6149 33.1827 34.7551 32.9748 35.0352C32.7672 35.3152 32.6133 35.6884 32.5134 36.1539L32.1867 37.7063H31.4001L32.1867 34.0455H32.8001L32.73 34.724H32.7601C33.0887 34.2282 33.4796 33.9802 33.9329 33.9802Z" fill="#1E1C1C"/>
<path d="M37.6391 34.0465H38.4123L38.6224 35.804C38.6422 35.9408 38.6602 36.1334 38.6758 36.3814C38.6913 36.6301 38.699 36.83 38.699 36.9823H38.7189C38.91 36.5078 39.0602 36.1627 39.1688 35.9464L40.1452 34.0465H40.992L38.6987 38.2832C38.4986 38.6473 38.2808 38.9139 38.0456 39.0824C37.8101 39.2516 37.5336 39.3357 37.2156 39.3357C37.0468 39.3357 36.8876 39.3147 36.739 39.2728V38.6504C36.9056 38.6855 37.0443 38.7034 37.1557 38.7034C37.3202 38.7034 37.4691 38.6557 37.6022 38.5592C37.7356 38.4634 37.8734 38.2918 38.0155 38.0447L38.1855 37.7402L37.6391 34.0465Z" fill="#1E1C1C"/>
<path d="M44.3855 34.6023C44.3855 35.1982 44.2949 35.7457 44.1141 36.2458C43.9329 36.7453 43.6843 37.1252 43.3691 37.3843C43.0535 37.6434 42.6893 37.7731 42.276 37.7731C41.8605 37.7731 41.5381 37.6511 41.3095 37.4071C41.0808 37.1634 40.9663 36.8251 40.9663 36.3928C40.9663 35.9978 41.0364 35.6336 41.1764 35.3005C41.3163 34.9674 41.5136 34.7052 41.7681 34.5142C42.0222 34.3235 42.3082 34.2279 42.6263 34.2279C43.0507 34.2279 43.3675 34.4254 43.5763 34.8204H43.5962L43.6027 34.708V34.6152C43.6027 34.1035 43.5301 33.7269 43.3843 33.4866C43.2388 33.2463 43.0107 33.1258 42.6995 33.1258C42.4615 33.1258 42.2307 33.1754 42.0064 33.2746L41.8264 32.6756C41.9663 32.6162 42.1258 32.5696 42.3045 32.5367C42.4836 32.5037 42.6517 32.4871 42.8097 32.4871C43.8599 32.4874 44.3855 33.1923 44.3855 34.6023ZM42.339 37.1378C42.6101 37.1378 42.8463 36.9902 43.0473 36.6944C43.2481 36.3986 43.3942 35.9928 43.4854 35.4764C43.4274 35.2777 43.3356 35.1212 43.2087 35.0065C43.0818 34.8919 42.9331 34.8343 42.7622 34.8343C42.5776 34.8343 42.4075 34.9033 42.2521 35.0414C42.0966 35.1791 41.9753 35.3689 41.8888 35.6108C41.8022 35.852 41.7588 36.1176 41.7588 36.4066C41.7588 36.6405 41.8099 36.8211 41.912 36.948C42.0144 37.0743 42.1568 37.1378 42.339 37.1378Z" fill="#1E1C1C"/>
<path d="M46.3117 34.0465L45.8817 36.0656C45.8128 36.3768 45.7783 36.5897 45.7783 36.7043C45.7783 36.9977 45.9195 37.1446 46.2015 37.1446C46.3616 37.1446 46.5202 37.0818 46.6781 36.9561C46.836 36.8304 46.976 36.651 47.0982 36.4184C47.2205 36.1855 47.3148 35.9122 47.3815 35.5991L47.7113 34.0468H48.488L47.7113 37.7076H47.0948L47.1649 37.0291H47.1383C46.9561 37.2852 46.7662 37.4731 46.5683 37.5933C46.3703 37.7137 46.1572 37.7738 45.9282 37.7738C45.6303 37.7738 45.4004 37.69 45.2381 37.5224C45.0759 37.3548 44.9949 37.1141 44.9949 36.8008C44.9949 36.6618 45.0082 36.5247 45.0349 36.3885C45.0616 36.2532 45.0883 36.1168 45.115 35.9799L45.5248 34.0471H46.3117V34.0465Z" fill="#1E1C1C"/>
<path d="M50.678 36.3037C50.5381 36.3037 50.4186 36.3401 50.3199 36.4128C50.221 36.4855 50.1316 36.6014 50.0515 36.7604C49.8849 37.0826 49.7543 37.302 49.66 37.4191C49.5653 37.5362 49.4598 37.6222 49.3432 37.6773C49.2268 37.7325 49.0872 37.7602 48.9249 37.7602C48.767 37.7602 48.6395 37.7405 48.5418 37.7007V37.0685C48.6218 37.0971 48.6929 37.1116 48.7552 37.1116C48.853 37.1116 48.9364 37.0817 49.0053 37.0223C49.0742 36.9628 49.1499 36.8522 49.2318 36.6913C49.3429 36.484 49.4462 36.3352 49.5418 36.2446C49.6373 36.154 49.7428 36.0902 49.8586 36.0526C49.4719 35.9223 49.2787 35.6542 49.2787 35.2484C49.2787 34.8778 49.4139 34.585 49.6836 34.3694C49.9538 34.1546 50.324 34.0468 50.7953 34.0468H52.262L51.4853 37.7075H50.7053L51.0153 36.304H50.678V36.3037ZM50.7413 34.642C50.5325 34.642 50.3674 34.695 50.2464 34.801C50.1251 34.907 50.0646 35.0537 50.0646 35.2413C50.0646 35.4068 50.1186 35.5282 50.2262 35.6055C50.3339 35.6829 50.4797 35.7214 50.6644 35.7214H51.1344L51.3609 34.6423H50.7413V34.642Z" fill="#1E1C1C"/>
<path d="M55.9345 34.0465L55.6211 35.5162H57.0943L57.4111 34.0465H58.1877L57.4111 37.7073H56.6246L56.9578 36.1285H55.4911L55.151 37.7073H54.3645L55.1579 34.0465H55.9345Z" fill="#1E1C1C"/>
<path d="M59.6808 37.7731C59.3675 37.7731 59.1195 37.6613 58.9374 37.4373C58.7553 37.213 58.6641 36.8981 58.6641 36.4923C58.6641 36.0467 58.7413 35.6295 58.8955 35.241C59.05 34.8524 59.2629 34.5453 59.5341 34.3194C59.8053 34.0932 60.1028 33.9799 60.4274 33.9799C60.6427 33.9799 60.8285 34.0301 60.984 34.1302C61.1394 34.2307 61.2608 34.377 61.3473 34.569H61.3805L61.5872 34.0461H62.1872L61.4007 37.7069H60.7941L60.8642 37.1242H60.8444C60.4928 37.5568 60.1053 37.7731 59.6808 37.7731ZM59.9675 37.1442C60.1497 37.1442 60.3287 37.0589 60.504 36.8879C60.6793 36.7166 60.8239 36.4876 60.9371 36.2011C61.0504 35.9145 61.1072 35.6009 61.1072 35.261C61.1072 35.0669 61.055 34.9107 60.9505 34.7924C60.8459 34.6744 60.7094 34.6155 60.5406 34.6155C60.352 34.6155 60.1739 34.7002 60.0072 34.8703C59.8406 35.0404 59.7072 35.2715 59.6073 35.5639C59.5074 35.856 59.4574 36.1592 59.4574 36.4722C59.4574 36.6972 59.5024 36.8654 59.5927 36.9769C59.6824 37.0888 59.8074 37.1442 59.9675 37.1442Z" fill="#1E1C1C"/>
<path d="M64.9937 33.9802C65.4824 33.9802 65.7647 34.2396 65.8405 34.7579H65.8671C66.0338 34.5018 66.223 34.3083 66.4353 34.1767C66.6478 34.0455 66.8684 33.9799 67.0971 33.9799C67.3925 33.9799 67.6177 34.064 67.7722 34.2331C67.9264 34.4017 68.0037 34.6395 68.0037 34.9461C68.0037 35.0872 67.9792 35.2869 67.9305 35.5451L67.4638 37.7066H66.6807L67.1573 35.4822C67.1995 35.2724 67.2206 35.1261 67.2206 35.0419C67.2206 34.7572 67.0859 34.6149 66.8172 34.6149C66.5774 34.6149 66.3533 34.7517 66.1458 35.0253C65.9379 35.2989 65.7862 35.6619 65.6906 36.1142L65.3539 37.7063H64.5708L65.0474 35.4819C65.0853 35.3011 65.1042 35.1609 65.1042 35.0617C65.1042 34.7637 64.9742 34.6149 64.7142 34.6149C64.4697 34.6149 64.2435 34.7551 64.0356 35.0352C63.828 35.3152 63.6741 35.6884 63.5742 36.1539L63.2475 37.7063H62.4609L63.2475 34.0455H63.8609L63.7908 34.724H63.8209C64.1492 34.2282 64.5404 33.9802 64.9937 33.9802Z" fill="#1E1C1C"/>
<path d="M70.3934 36.3037C70.2531 36.3037 70.134 36.3401 70.035 36.4128C69.9361 36.4855 69.8467 36.6014 69.7666 36.7604C69.6 37.0826 69.4694 37.302 69.3751 37.4191C69.2804 37.5362 69.1749 37.6222 69.0583 37.6773C68.9419 37.7325 68.8023 37.7602 68.64 37.7602C68.4821 37.7602 68.3546 37.7405 68.2568 37.7007V37.0685C68.3369 37.0971 68.4079 37.1116 68.4703 37.1116C68.568 37.1116 68.6515 37.0817 68.7204 37.0223C68.7893 36.9628 68.865 36.8522 68.9469 36.6913C69.058 36.484 69.1613 36.3352 69.2569 36.2446C69.3524 36.154 69.4579 36.0902 69.5737 36.0526C69.187 35.9223 68.9937 35.6542 68.9937 35.2484C68.9937 34.8778 69.129 34.585 69.3987 34.3694C69.6689 34.1546 70.0391 34.0468 70.5104 34.0468H71.977L71.2004 37.7075H70.4204L70.7304 36.304H70.3934V36.3037ZM70.4567 34.642C70.2479 34.642 70.0825 34.695 69.9618 34.801C69.8405 34.907 69.78 35.0537 69.78 35.2413C69.78 35.4068 69.834 35.5282 69.9416 35.6055C70.0493 35.6829 70.1951 35.7214 70.3801 35.7214H70.8501L71.0766 34.6423H70.4567V34.642Z" fill="#1E1C1C"/>
<path d="M74.793 36.1546H74.2664C74.1463 36.6556 73.9285 37.0503 73.6133 37.3396C73.2981 37.629 72.9214 37.7732 72.4833 37.7732C72.3322 37.7732 72.1888 37.7578 72.0532 37.727L72.1764 37.1046C72.2831 37.1311 72.383 37.1443 72.4764 37.1443C72.6877 37.1443 72.8764 37.066 73.043 36.9092C73.2096 36.7524 73.3403 36.5385 73.4346 36.2671C73.5292 35.9956 73.5764 35.7078 73.5764 35.4031C73.5764 35.1449 73.527 34.949 73.4277 34.8159C73.3291 34.6821 73.1895 34.6156 73.0095 34.6156C72.8851 34.6156 72.7551 34.6387 72.6195 34.6852V34.0529C72.7883 34.0046 72.9639 33.9802 73.146 33.9802C73.5305 33.9802 73.8292 34.1026 74.0427 34.3475C74.2562 34.5925 74.3626 34.94 74.3626 35.3902C74.3626 35.4496 74.357 35.5214 74.3459 35.6052H74.9059L75.2425 34.0462H75.9791L75.6391 35.6052H76.169C76.2913 35.0999 76.5097 34.7028 76.824 34.4137C77.1383 34.1247 77.5122 33.9802 77.9454 33.9802C78.13 33.9802 78.282 33.9956 78.4021 34.0264L78.2656 34.6488C78.1678 34.627 78.0636 34.6159 77.9522 34.6159C77.7521 34.6159 77.5709 34.688 77.407 34.8325C77.2441 34.9773 77.1129 35.1868 77.0136 35.4614C76.9149 35.7365 76.8653 36.0326 76.8653 36.3503C76.8653 36.6039 76.9125 36.7998 77.0068 36.9376C77.1014 37.0756 77.2407 37.1446 77.4253 37.1446C77.5364 37.1446 77.6664 37.1193 77.8153 37.0685V37.7072C77.6599 37.7516 77.4865 37.7735 77.2953 37.7735C76.9134 37.7735 76.6155 37.6536 76.402 37.4142C76.1886 37.1751 76.0821 36.8282 76.0821 36.3734V36.2643L76.0887 36.1552H75.5221L75.1855 37.7075H74.4554L74.793 36.1546Z" fill="#1E1C1C"/>
<path d="M79.9992 34.0465L79.6858 35.5162H81.159L81.4758 34.0465H82.2524L81.4758 37.7072H80.6892L81.0225 36.1284H79.5558L79.2158 37.7069H78.4292L79.2226 34.0461H79.9992V34.0465Z" fill="#1E1C1C"/>
<path d="M84.1086 34.0465L83.7753 35.5923C84.0533 35.5371 84.2864 35.5094 84.4753 35.5094C84.8132 35.5094 85.0773 35.5954 85.2687 35.7676C85.4601 35.9398 85.5554 36.1768 85.5554 36.4794C85.5554 36.8744 85.4201 37.189 85.1505 37.4228C84.8802 37.6567 84.5101 37.7738 84.0388 37.7738C83.6208 37.7738 83.3109 37.681 83.1089 37.4959C82.9069 37.3107 82.8054 37.0512 82.8054 36.7181C82.8054 36.5283 82.8299 36.3188 82.8786 36.0893L83.322 34.0471H84.1086V34.0465ZM84.2119 36.0951C84.0518 36.0951 83.8653 36.117 83.6518 36.1614C83.6385 36.2255 83.6267 36.2812 83.6171 36.3284C83.6069 36.3758 83.5997 36.4196 83.5954 36.4593C83.591 36.4991 83.5876 36.5361 83.5855 36.5703C83.5833 36.6041 83.582 36.6402 83.582 36.6778C83.582 37.0198 83.7555 37.1908 84.1021 37.1908C84.3087 37.1908 84.4732 37.1338 84.5954 37.0204C84.7177 36.9067 84.7788 36.7539 84.7788 36.5619C84.7788 36.3919 84.731 36.272 84.6354 36.2011C84.5399 36.1303 84.3984 36.0951 84.2119 36.0951ZM86.6683 37.7069H85.8883L86.6683 34.0461H87.4515L86.6683 37.7069Z" fill="#1E1C1C"/>
<path d="M89.248 36.426L88.2316 37.7069H87.3318L88.9151 35.8237L88.1453 34.0461H88.962L89.442 35.2808L90.3986 34.0461H91.3117L89.7752 35.8631L90.6018 37.7066H89.7817L89.248 36.426Z" fill="#1E1C1C"/>
<path d="M95.1712 37.7069L95.6444 35.4826C95.6844 35.2838 95.7043 35.1396 95.7043 35.049C95.7043 34.76 95.5609 34.6155 95.2742 34.6155C95.1141 34.6155 94.9565 34.6784 94.801 34.8041C94.6456 34.9298 94.5057 35.1113 94.3809 35.3485C94.2565 35.5861 94.1631 35.8548 94.1011 36.1546L93.7743 37.7069H92.9878L93.7743 34.0461H94.3878L94.3176 34.7246H94.3477C94.5323 34.4642 94.7222 34.275 94.9177 34.1567C95.1132 34.0387 95.3254 33.9799 95.5544 33.9799C95.8523 33.9799 96.0825 34.0637 96.246 34.2313C96.4089 34.3989 96.4908 34.6371 96.4908 34.9461C96.4908 35.0983 96.4654 35.2983 96.4142 35.5451L95.9574 37.7066H95.1712V37.7069Z" fill="#1E1C1C"/>
<path d="M100.454 35.4167C100.454 35.8623 100.373 36.2681 100.211 36.6329C100.049 36.9983 99.8259 37.2787 99.5423 37.4737C99.2593 37.6694 98.9329 37.7668 98.5643 37.7668C98.1377 37.7668 97.7988 37.6404 97.5478 37.3878C97.2965 37.1354 97.1711 36.7916 97.1711 36.3568C97.1711 35.9177 97.2506 35.515 97.4094 35.1487C97.5686 34.7826 97.7911 34.4973 98.0778 34.2933C98.3645 34.089 98.6955 33.9871 99.071 33.9871C99.5041 33.9871 99.8429 34.1149 100.087 34.371C100.332 34.627 100.454 34.9752 100.454 35.4167ZM99.6642 35.3835C99.6642 35.1471 99.6096 34.9626 99.501 34.8291C99.3921 34.6954 99.2363 34.6289 99.0343 34.6289C98.8277 34.6289 98.6425 34.7077 98.4796 34.8655C98.3161 35.0236 98.1891 35.2374 98.0995 35.5076C98.0092 35.7782 97.9642 36.0666 97.9642 36.3734C97.9642 36.6184 98.0194 36.8057 98.129 36.9361C98.2391 37.0664 98.402 37.1314 98.6173 37.1314C98.8175 37.1314 98.9974 37.0565 99.1572 36.9065C99.317 36.7564 99.4417 36.5463 99.5305 36.2758C99.6195 36.0052 99.6642 35.7079 99.6642 35.3835Z" fill="#1E1C1C"/>
<path d="M103.46 33.9802C103.949 33.9802 104.231 34.2396 104.307 34.7579H104.334C104.5 34.5018 104.69 34.3083 104.902 34.1767C105.114 34.0455 105.335 33.9799 105.564 33.9799C105.859 33.9799 106.084 34.064 106.239 34.2331C106.393 34.4017 106.47 34.6395 106.47 34.9461C106.47 35.0872 106.446 35.2869 106.397 35.5451L105.93 37.7066H105.147L105.624 35.4822C105.666 35.2724 105.687 35.1261 105.687 35.0419C105.687 34.7572 105.552 34.6149 105.284 34.6149C105.044 34.6149 104.82 34.7517 104.612 35.0253C104.404 35.2989 104.253 35.6619 104.157 36.1142L103.821 37.7063H103.037L103.514 35.4819C103.552 35.3011 103.571 35.1609 103.571 35.0617C103.571 34.7637 103.441 34.6149 103.181 34.6149C102.936 34.6149 102.71 34.7551 102.502 35.0352C102.295 35.3152 102.141 35.6884 102.041 36.1539L101.714 37.7063H100.927L101.714 34.0455H102.327L102.257 34.724H102.287C102.616 34.2282 103.007 33.9802 103.46 33.9802Z" fill="#1E1C1C"/>
<path d="M110.43 35.4167C110.43 35.8623 110.349 36.2681 110.187 36.6329C110.025 36.9983 109.802 37.2787 109.518 37.4737C109.235 37.6694 108.909 37.7668 108.54 37.7668C108.114 37.7668 107.775 37.6404 107.524 37.3878C107.273 37.1354 107.147 36.7916 107.147 36.3568C107.147 35.9177 107.227 35.515 107.386 35.1487C107.545 34.7826 107.767 34.4973 108.054 34.2933C108.341 34.089 108.672 33.9871 109.047 33.9871C109.48 33.9871 109.819 34.1149 110.063 34.371C110.308 34.627 110.43 34.9752 110.43 35.4167ZM109.64 35.3835C109.64 35.1471 109.585 34.9626 109.477 34.8291C109.368 34.6954 109.212 34.6289 109.01 34.6289C108.803 34.6289 108.618 34.7077 108.455 34.8655C108.292 35.0236 108.165 35.2374 108.075 35.5076C107.985 35.7782 107.94 36.0666 107.94 36.3734C107.94 36.6184 107.995 36.8057 108.105 36.9361C108.215 37.0664 108.378 37.1314 108.593 37.1314C108.793 37.1314 108.973 37.0565 109.133 36.9065C109.293 36.7564 109.417 36.5463 109.506 36.2758C109.595 36.0052 109.64 35.7079 109.64 35.3835Z" fill="#1E1C1C"/>
<path d="M113.73 37.7069H112.943L113.6 34.6617C113.517 34.6439 113.439 34.6352 113.366 34.6352C113.206 34.6352 113.074 34.6704 112.97 34.7412C112.865 34.8121 112.768 34.9298 112.678 35.0953C112.588 35.2607 112.461 35.5839 112.297 36.0649C112.103 36.6189 111.948 36.9936 111.83 37.1883C111.712 37.3839 111.577 37.5288 111.423 37.6237C111.27 37.7186 111.085 37.766 110.87 37.766C110.728 37.766 110.6 37.7441 110.487 37.6998V37.0478C110.567 37.0808 110.651 37.0974 110.74 37.0974C110.849 37.0974 110.944 37.0617 111.027 36.9896C111.109 36.9181 111.188 36.8087 111.265 36.662C111.342 36.5151 111.455 36.2254 111.607 35.7931C111.769 35.3319 111.905 35.0016 112.015 34.8019C112.125 34.6023 112.247 34.4454 112.38 34.332C112.514 34.2183 112.67 34.1342 112.85 34.0806C113.03 34.0264 113.248 33.9993 113.503 33.9993C113.85 33.9993 114.178 34.0467 114.487 34.1416L113.73 37.7069Z" fill="#1E1C1C"/>
<path d="M117.629 34.0465H118.556L116.843 35.8703L117.929 37.7073H117.03L116.003 35.9035L115.623 37.7073H114.836L115.623 34.0465H116.399L116.033 35.7809L117.629 34.0465Z" fill="#1E1C1C"/>
<path d="M121.873 35.4167C121.873 35.8623 121.791 36.2681 121.629 36.6329C121.467 36.9983 121.245 37.2787 120.961 37.4737C120.678 37.6694 120.352 37.7668 119.983 37.7668C119.556 37.7668 119.218 37.6404 118.967 37.3878C118.715 37.1354 118.59 36.7916 118.59 36.3568C118.59 35.9177 118.669 35.515 118.828 35.1487C118.987 34.7826 119.21 34.4973 119.496 34.2933C119.783 34.089 120.114 33.9871 120.49 33.9871C120.923 33.9871 121.262 34.1149 121.506 34.371C121.751 34.627 121.873 34.9752 121.873 35.4167ZM121.083 35.3835C121.083 35.1471 121.028 34.9626 120.919 34.8291C120.81 34.6954 120.655 34.6289 120.453 34.6289C120.246 34.6289 120.061 34.7077 119.898 34.8655C119.734 35.0236 119.608 35.2374 119.518 35.5076C119.428 35.7782 119.383 36.0666 119.383 36.3734C119.383 36.6184 119.438 36.8057 119.547 36.9361C119.658 37.0664 119.82 37.1314 120.036 37.1314C120.236 37.1314 120.416 37.0565 120.576 36.9065C120.735 36.7564 120.86 36.5463 120.949 36.2758C121.038 36.0052 121.083 35.7079 121.083 35.3835Z" fill="#1E1C1C"/>
<path d="M124.495 33.9802C124.902 33.9802 125.217 34.0631 125.442 34.2286C125.666 34.394 125.778 34.6291 125.778 34.9335C125.778 35.4188 125.49 35.7266 124.912 35.857V35.8702C125.341 35.9849 125.555 36.2375 125.555 36.6282C125.555 36.8488 125.495 37.0454 125.373 37.2173C125.252 37.3896 125.076 37.5251 124.845 37.6244C124.614 37.7236 124.336 37.7732 124.012 37.7732C123.523 37.7732 123.149 37.6447 122.89 37.3874C122.631 37.1304 122.502 36.7604 122.502 36.2769C122.502 35.8379 122.584 35.4422 122.749 35.0901C122.913 34.7382 123.146 34.4652 123.449 34.2711C123.751 34.077 124.1 33.9802 124.495 33.9802ZM123.295 36.1349L123.289 36.2243V36.317C123.289 36.5995 123.351 36.8155 123.477 36.9656C123.602 37.1156 123.79 37.1905 124.039 37.1905C124.272 37.1905 124.454 37.1381 124.585 37.0334C124.717 36.9283 124.782 36.7887 124.782 36.6146C124.782 36.4538 124.719 36.3333 124.594 36.2538C124.468 36.1743 124.266 36.1346 123.986 36.1346H123.295V36.1349ZM124.482 34.5758C124.217 34.5758 123.991 34.663 123.802 34.8374C123.613 35.0118 123.475 35.2546 123.389 35.5655H124.099C124.394 35.5655 124.62 35.5147 124.775 35.4133C124.931 35.3119 125.009 35.1729 125.009 34.9961C125.009 34.8725 124.965 34.7715 124.877 34.6932C124.789 34.615 124.657 34.5758 124.482 34.5758Z" fill="#1E1C1C"/>
<rect width="77.617" height="13.6971" fill="black" fill-opacity="0" transform="translate(48.1616 14.9852)"/>
<path d="M57.6129 28.5004H55.1435L51.7589 21.9384L50.3533 28.5004H48.1616L51.0192 15.1942H53.2109L51.8328 21.5472L57.5942 15.1942H60.1649L54.0707 21.8113L57.6129 28.5004Z" fill="#3D2E29"/>
<path d="M71.5865 20.1087C71.5865 21.8018 71.2936 23.3096 70.7082 24.6323C70.1222 25.9549 69.3162 26.9604 68.2896 27.6491C67.2631 28.3379 66.0716 28.6824 64.7153 28.6824C63.1188 28.6824 61.8826 28.2289 61.007 27.3219C60.1314 26.4146 59.6936 25.1602 59.6936 23.5583C59.6936 21.9385 59.9974 20.4592 60.6049 19.1214C61.2121 17.7835 62.0429 16.7596 63.097 16.05C64.151 15.3399 65.3473 14.9852 66.6849 14.9852C68.2324 14.9852 69.4363 15.4372 70.2964 16.3412C71.1566 17.2452 71.5865 18.5008 71.5865 20.1087ZM66.5094 16.8507C65.6583 16.8507 64.8878 17.1422 64.1973 17.7246C63.5066 18.307 62.9657 19.1157 62.5742 20.1501C62.1827 21.1848 61.9872 22.3151 61.9872 23.5407C61.9872 24.5903 62.2383 25.4002 62.7409 25.9707C63.2431 26.5409 63.9447 26.8261 64.8448 26.8261C65.6956 26.8261 66.4616 26.5364 67.1429 25.957C67.824 25.3775 68.3544 24.5736 68.7335 23.5449C69.1128 22.5164 69.3022 21.3775 69.3022 20.1272C69.3022 19.0958 69.0587 18.2918 68.5716 17.7154C68.0845 17.1386 67.3971 16.8507 66.5094 16.8507Z" fill="#3D2E29"/>
<path d="M83.0352 18.8438C83.0352 20.3487 82.5127 21.5046 81.4677 22.3115C80.4227 23.1184 78.9659 23.5219 77.0983 23.5219H76.0811L75.0173 28.5004H72.8257L75.6833 15.1942H78.772C80.1837 15.1942 81.2474 15.4991 81.9624 16.1089C82.6776 16.7184 83.0352 17.6305 83.0352 18.8438ZM76.4784 21.6925H77.3479C78.4452 21.6925 79.2945 21.451 79.8956 20.9686C80.4965 20.4863 80.7972 19.8023 80.7972 18.9162C80.7972 18.2549 80.6166 17.7725 80.2563 17.4691C79.8956 17.1657 79.3423 17.0141 78.5962 17.0141H77.4955L76.4784 21.6925Z" fill="#3D2E29"/>
<path d="M83.6638 28.5004L86.5214 15.1942H88.7778L86.2902 26.6349H90.5165L92.9763 15.1942H95.233L92.773 26.6349H96.9714L99.4405 15.1942H101.669L98.8118 28.5004H83.6638Z" fill="#3D2E29"/>
<path d="M103.436 28.6823C102.758 28.6823 102.175 28.5912 101.688 28.4092V26.4342C102.193 26.6709 102.758 26.7892 103.38 26.7892C103.904 26.7892 104.371 26.6406 104.781 26.3431C105.191 26.046 105.646 25.4906 106.146 24.6775L103.399 15.1936H105.61L107.145 20.9915C107.385 21.9622 107.536 22.6328 107.598 23.0029C107.906 22.2871 108.205 21.6829 108.495 21.1916L111.954 15.1936H114.395L108.449 24.905C107.789 25.9849 107.223 26.7737 106.752 27.2712C106.28 27.7688 105.782 28.1282 105.258 28.3497C104.734 28.5715 104.126 28.6823 103.436 28.6823Z" fill="#3D2E29"/>
<path d="M122.921 28.5004H120.72L122.015 22.5024H116.78L115.495 28.5004H113.303L116.161 15.1942H118.352L117.178 20.6369H122.412L123.587 15.1942H125.779L122.921 28.5004Z" fill="#3D2E29"/>
<defs>
<linearGradient id="paint0_linear" x1="18.7102" y1="0.5271" x2="18.7102" y2="40.5271" gradientUnits="userSpaceOnUse">
<stop stop-color="#83B944"/>
<stop offset="1" stop-color="#007905"/>
</linearGradient>
<linearGradient id="paint1_linear" x1="41.5721" y1="4.45471" x2="41.5721" y2="18.9645" gradientUnits="userSpaceOnUse">
<stop stop-color="#83B944"/>
<stop offset="1" stop-color="#007905"/>
</linearGradient>
</defs>
</svg>
